<svg width="261" height="336" viewBox="0 0 261 336" fill="none" xmlns="http://www.w3.org/2000/svg">
<path opacity="0.1" d="M251.476 157.872C249.145 153.22 247.048 148.432 244.477 143.944C239.978 136.177 234.979 128.71 229.512 121.591C217.855 106.345 205.359 91.7491 192.939 77.2276C180.794 63.2068 167.093 50.6144 152.099 39.6937C136.362 28.0078 118.906 18.8356 100.355 12.5045C86.3687 7.83526 71.9943 4.41995 57.4021 2.2989C44.7512 0.473842 31.9395 0.02627 19.192 0.964129C15.1922 1.59918 11.1402 1.84396 7.09301 1.69501L4.76136 14.179C4.95138 14.3576 5.17496 14.4966 5.41912 14.588C5.66328 14.6795 5.92318 14.7215 6.18372 14.7118C6.44427 14.702 6.70028 14.6406 6.93691 14.5311C7.17355 14.4217 7.38616 14.2664 7.5623 14.0741C8.37268 13.418 9.06015 12.6193 9.81814 11.9235C9.93913 11.7739 10.1057 11.668 10.2925 11.6219C10.4793 11.5758 10.676 11.592 10.8527 11.6682C10.9358 11.7166 11.0081 11.7816 11.0651 11.859C11.1222 11.9364 11.1628 12.0246 11.1845 12.1183C11.2062 12.212 11.2086 12.3091 11.1914 12.4037C11.1742 12.4983 11.1379 12.5884 11.0846 12.6685C10.3549 14.4731 9.21461 16.0828 7.7542 17.3698C7.1099 17.9373 6.53 17.6794 6.02029 17.0459L4.52387 15.4506L1.77124 30.1886C2.98845 30.2365 2.50324 31.073 2.42419 31.6564C1.96957 34.891 1.60713 38.113 0.979129 41.3153C-0.897905 50.5646 2.73559 58.331 7.30622 65.8837C8.40727 67.6744 10.4787 67.7921 12.1552 68.5837C13.8316 69.3753 15.0935 68.8633 16.326 70.1103C16.4159 70.1773 16.5199 70.2228 16.6301 70.2434C16.7403 70.264 16.8538 70.2591 16.9618 70.2291C20.2564 68.6014 23.9843 69.2977 27.2843 67.6412C33.0223 64.9345 38.0507 60.928 41.9706 55.9395C43.842 53.3665 45.1718 50.4406 45.8797 47.3388C47.3499 41.6636 50.567 36.5941 55.076 32.8473C58.4488 30.1663 61.6075 27.2266 64.5236 24.0549C66.2 22.1251 66.9225 22.26 68.6539 24.1983C70.3853 26.1366 72.7349 26.3661 74.4595 23.6976C75.0419 23.0181 75.8172 22.5319 76.6824 22.3036C77.5477 22.0753 78.4619 22.1156 79.3037 22.4192L89.283 27.2737C92.7087 29.0636 95.7278 31.5415 98.1514 34.5524C98.5255 34.9512 98.8256 35.426 98.4522 35.9843C98.0788 36.5425 97.6723 36.3171 97.2099 36.2307L96.5452 36.1066C94.5802 35.7396 92.3493 34.8743 90.5821 36.0097C87.8665 37.6732 85.62 40.0019 84.055 42.7755C83.5193 43.7222 83.769 44.3071 84.8455 44.6278C90.6474 46.5488 96.0094 49.7036 101.955 51.173C102.88 51.3457 103.458 51.4537 104.088 50.6442C107.779 45.7711 113.194 44.0011 118.887 42.8214C119.606 42.6566 120.384 42.6524 121.121 42.5508C121.38 42.4761 121.63 42.3723 121.866 42.2415C109.47 30.9543 96.3954 20.7367 80.0999 14.3138C83.4078 14.1725 86.6952 14.8999 89.6347 16.4236C95.8299 18.8312 101.831 21.7117 107.584 25.0395C115.568 30.3288 123.96 35.0362 130.861 41.7981C131.783 42.71 132.597 43.725 133.287 44.8231C134.235 46.5661 135.742 47.9386 137.567 48.7189C139.391 49.4991 141.425 49.6415 143.34 49.123C148.84 47.6979 152.941 50.5574 156.919 53.2743C160.795 56.1531 164.523 59.225 168.09 62.4782C168.527 62.859 169.19 63.3118 168.83 63.9622C168.469 64.6125 167.743 64.1778 167.239 63.994C165.756 63.4151 164.168 63.1596 162.579 63.2445C160.99 63.3294 159.437 63.7528 158.025 64.4863C155.487 65.7468 152.611 66.2563 149.945 67.8816C153.028 69.8017 156.293 71.4132 159.693 72.6929C172.059 78.1468 183.918 84.6851 195.131 92.2312C196.19 92.9673 197.557 93.4918 198.028 95.6134C195.295 94.2357 192.991 93.1176 190.733 91.9183C177.173 84.7801 163.347 78.2104 149.256 72.2091C147.487 71.4302 146.511 71.6963 146.223 73.5566C145.752 76.878 143.604 77.4935 140.664 77.5425C131.694 77.8268 122.838 79.6421 114.48 82.91C111.467 83.9921 111.142 84.7688 113.466 87.0571C114.556 87.9842 115.844 88.6473 117.232 88.9946C118.619 89.342 120.068 89.3642 121.466 89.0596C122.474 88.8517 123.519 88.912 124.496 89.2345C125.474 89.557 126.349 90.1303 127.035 90.8973C127.722 91.6643 128.195 92.598 128.407 93.605C128.619 94.6121 128.563 95.6572 128.245 96.636C127.123 102.647 130.16 107.521 133.378 112.069C137.476 117.829 136.195 122.285 129.312 124.229C124.664 125.742 119.894 126.852 115.055 127.548C108.647 128.235 105.52 124.959 105.239 118.298C105.517 115.839 105.225 113.348 104.385 111.02C103.841 110.021 103.074 109.161 102.144 108.506C101.213 107.851 100.145 107.42 99.0205 107.244C97.8964 107.069 96.747 107.155 95.6615 107.496C94.576 107.836 93.5836 108.422 92.7611 109.208C90.7634 111.258 90.9746 111.088 89.1777 108.539C88.4064 107.425 87.8848 106.157 87.6489 104.823C87.4129 103.488 87.4681 102.118 87.8106 100.807C88.6475 96.2667 89.9192 91.8173 91.6081 87.5204C92.1866 85.8639 91.8178 85.4362 90.1726 85.2784C85.6649 84.4935 81.026 85.3941 77.1394 87.8086C76.0776 88.5032 74.8696 88.9428 73.6098 89.0933C69.4647 89.9086 65.263 90.4037 61.0418 90.574C60.6281 90.6016 60.2249 90.7164 59.8587 90.9109C59.4925 91.1053 59.1716 91.375 58.9171 91.7023C56.1182 94.6786 53.2434 97.5809 50.4211 100.523C49.3801 101.614 48.1251 102.479 46.7347 103.063C45.3443 103.647 43.8483 103.938 42.3403 103.918C40.5196 103.898 38.7199 104.308 37.0879 105.116C35.4559 105.923 34.0378 107.105 32.9493 108.564C32.3515 109.487 31.472 110.193 30.4414 110.577C29.4108 110.961 28.284 111.003 27.2279 110.696L26.7655 110.609C25.1619 110.549 23.2689 109.956 22.7396 112.31C22.5798 113.29 22.808 114.294 23.376 115.109C23.9439 115.924 24.8069 116.486 25.782 116.676C38.1146 119.338 46.4743 127.419 53.831 136.868C56.027 140.017 58.4732 142.984 61.1457 145.74C62.033 146.594 62.6325 146.586 63.562 145.773C66.2552 143.154 69.7142 141.464 73.435 140.948C75.5168 140.615 77.6491 141.038 79.4455 142.142C81.2419 143.245 82.5835 144.956 83.2272 146.964C83.8224 148.421 84.2858 149.943 84.8124 151.447C85.339 152.951 85.861 153.198 87.3522 152.579C88.8299 151.867 90.4817 151.596 92.1093 151.799C93.737 152.003 95.2716 152.671 96.5289 153.725C97.3935 154.409 98.3954 154.898 99.4664 155.16C100.537 155.422 101.652 155.45 102.735 155.243C103.4 155.086 104.091 155.07 104.763 155.195C105.434 155.321 106.072 155.585 106.636 155.971C108.138 157.022 109.958 157.52 111.786 157.382C115.362 157.195 118.919 158.021 122.047 159.764C125.176 161.506 127.75 164.096 129.474 167.235C133.354 173.339 135.462 180.4 135.564 187.632C135.724 189.58 135.123 191.516 133.886 193.03C132.65 194.545 130.874 195.521 128.933 195.754C126.901 196.189 124.845 196.504 122.775 196.697C120.746 196.761 118.764 197.327 117.008 198.346C115.252 199.365 113.776 200.804 112.713 202.534C109.799 207.295 107.48 212.396 105.809 217.723C105.392 218.944 105.296 220.252 105.53 221.522C105.764 222.791 106.321 223.979 107.147 224.971C107.604 225.564 108.542 226.308 107.45 227.031C106.358 227.754 105.915 226.924 105.353 226.25C104.45 225.322 103.784 224.189 103.412 222.948C103.039 221.707 102.972 220.395 103.215 219.122C104.841 211.802 108.085 204.938 112.709 199.034C113.821 197.744 115.185 196.695 116.717 195.953C118.25 195.21 119.918 194.79 121.62 194.717C123.664 194.501 125.674 194.308 127.729 194.034C128.534 194.042 129.331 193.874 130.064 193.54C130.797 193.206 131.448 192.716 131.97 192.103C132.492 191.49 132.874 190.77 133.087 189.994C133.301 189.217 133.341 188.404 133.205 187.61C133.185 180.307 130.911 173.187 126.695 167.224C125.185 165.04 123.178 163.245 120.84 161.987C118.502 160.728 115.898 160.043 113.243 159.987C112.343 160.093 111.432 160.044 110.549 159.842C105.301 157.516 99.039 158.859 94.1767 155.11C93.2323 154.465 92.1204 154.11 90.9773 154.088C89.8341 154.065 88.7092 154.377 87.7404 154.984C87.1699 155.205 86.6823 155.598 86.3457 156.108C86.0091 156.619 85.8402 157.222 85.8625 157.833C85.8302 158.665 85.6214 159.481 85.2502 160.226C84.879 160.971 84.3538 161.629 83.7093 162.156C82.0257 163.965 80.3985 163.871 78.3819 162.178C76.0974 159.825 73.0659 158.339 69.8063 157.975C68.7609 157.864 67.7534 157.521 66.8575 156.971C65.9616 156.42 65.2 155.677 64.6284 154.795C57.9066 146.75 52.2172 137.822 44.7139 130.44C41.1826 126.901 37.1291 123.925 32.6949 121.616C30.6038 120.555 28.3136 119.944 25.972 119.822C23.0174 119.629 21.9473 120.715 22.2618 123.674C22.2207 125.578 22.7967 127.443 23.9035 128.992C25.0103 130.541 26.5885 131.69 28.4025 132.268C36.0831 135.018 41.4831 140.692 46.6342 146.738C48.2654 148.665 49.2037 151.083 49.2991 153.606C49.8939 161.213 51.3713 168.725 53.7014 175.991C55.7116 182.933 56.5349 190.164 56.1364 197.38C56.0013 200.419 56.5419 203.451 57.7193 206.257C58.8966 209.062 60.6814 211.572 62.9452 213.605C65.0415 215.671 67.1667 217.743 69.1547 219.908C72.2154 223.098 74.2836 227.108 75.1077 231.451C75.9318 235.794 75.4764 240.282 73.7969 244.371C71.6957 249.045 71.4439 254.341 73.0922 259.193C74.6749 262.951 76.629 266.542 78.9255 269.912C80.5182 272.273 83.2619 273.115 85.3309 274.847C86.2485 275.531 87.1068 276.292 87.8968 277.12C88.4379 277.673 88.771 278.396 88.8397 279.167C88.9084 279.937 88.7084 280.708 88.2737 281.348C87.725 282.151 87.3843 283.078 87.2819 284.045C87.1795 285.012 87.3187 285.99 87.687 286.89C89.2455 292.567 91.6057 297.993 94.6963 303.003C100.054 310.822 101.191 319.947 100.918 329.256C100.856 331.189 100.737 333.11 100.646 335.516C104.022 333.455 106.95 331.549 109.995 329.815C116.326 326.425 122.318 322.437 127.89 317.905C135.131 311.989 142.941 306.806 151.206 302.432C155.049 299.737 158.395 296.395 161.095 292.556C168.455 283.324 172.875 272.096 173.784 260.325C175.536 245.987 175.905 231.515 174.888 217.107C174.061 209.714 174.587 202.232 176.44 195.027C180.355 182.39 187.671 172.362 199.823 166.707C207.896 162.997 216.874 161.713 225.664 163.01C233.791 163.843 241.771 165.746 249.399 168.669C250.585 169.154 251.692 169.815 252.682 170.628C253.725 171.451 254.309 172.487 253.501 173.771C252.693 175.056 253.352 175.688 253.663 176.583C256.166 183.935 258.294 191.409 260.038 198.977M69.4998 15.0256C70.6846 15.2469 71.2428 15.6203 70.9926 16.7997C70.7425 17.9791 70.3618 18.4164 69.3323 18.1643C68.3027 17.9122 66.975 17.3353 67.0969 16.0421C67.2188 14.749 68.7649 15.2771 69.4998 15.0256ZM131.014 43.3818C132.546 43.6678 133.731 44.8462 133.542 45.8577C133.353 46.8691 132.649 46.7973 132.001 46.5865C130.761 46.1756 129.497 45.5806 129.472 44.1106C129.448 42.6406 130.454 43.337 131.072 43.3925L131.014 43.3818Z" fill="#7DAC00"/>
</svg>
