<svg width="270" height="348" viewBox="0 0 270 348" fill="none" xmlns="http://www.w3.org/2000/svg">
<path d="M9.54093 163.522C11.9519 158.71 14.1201 153.759 16.7793 149.117C21.4329 141.084 26.603 133.361 32.257 125.998C44.3134 110.229 57.2378 95.1335 70.0837 80.1144C82.6443 65.6132 96.8152 52.5894 112.323 41.2946C128.599 29.2083 146.653 19.7218 165.839 13.1737C180.305 8.34457 195.172 4.81224 210.264 2.61852C223.348 0.730931 236.599 0.268024 249.783 1.23802C253.92 1.89483 258.111 2.14799 262.297 1.99394L264.708 14.9057C264.512 15.0903 264.281 15.2341 264.028 15.3287C263.776 15.4233 263.507 15.4668 263.237 15.4567C262.968 15.4466 262.703 15.3831 262.458 15.2699C262.214 15.1567 261.994 14.996 261.812 14.7972C260.973 14.1186 260.262 13.2925 259.478 12.5729C259.353 12.4182 259.181 12.3087 258.988 12.261C258.795 12.2133 258.591 12.2301 258.408 12.3088C258.322 12.3589 258.248 12.4261 258.189 12.5061C258.13 12.5862 258.088 12.6775 258.065 12.7743C258.043 12.8712 258.04 12.9717 258.058 13.0695C258.076 13.1674 258.113 13.2606 258.169 13.3434C258.923 15.2099 260.103 16.8747 261.613 18.2058C262.279 18.7927 262.879 18.526 263.406 17.8708L264.954 16.2208L267.801 31.4638C266.542 31.5133 267.044 32.3785 267.126 32.9818C267.596 36.3273 267.971 39.6597 268.62 42.9717C270.562 52.5379 266.804 60.5705 262.076 68.3819C260.938 70.2339 258.795 70.3557 257.061 71.1744C255.327 71.9931 254.022 71.4636 252.748 72.7533C252.655 72.8226 252.547 72.8697 252.433 72.8909C252.319 72.9122 252.202 72.9072 252.09 72.8762C248.682 71.1928 244.827 71.9129 241.414 70.1996C235.479 67.4002 230.279 63.2564 226.224 58.097C224.289 55.4358 222.913 52.4097 222.181 49.2017C220.661 43.3319 217.333 38.0888 212.67 34.2136C209.182 31.4407 205.915 28.4003 202.899 25.12C201.165 23.124 200.418 23.2635 198.627 25.2682C196.836 27.273 194.406 27.5103 192.622 24.7504C192.02 24.0476 191.218 23.5448 190.323 23.3086C189.428 23.0725 188.483 23.1142 187.612 23.4282L177.291 28.449C173.748 30.3002 170.625 32.8631 168.119 35.9771C167.732 36.3896 167.421 36.8806 167.808 37.458C168.194 38.0354 168.614 37.8023 169.092 37.713L169.78 37.5846C171.812 37.205 174.12 36.31 175.947 37.4843C178.756 39.2049 181.079 41.6133 182.698 44.482C183.252 45.4611 182.994 46.066 181.88 46.3977C175.88 48.3845 170.334 51.6474 164.184 53.1672C163.228 53.3458 162.63 53.4575 161.979 52.6202C158.161 47.5802 152.561 45.7495 146.672 44.5294C145.929 44.3589 145.124 44.3547 144.362 44.2495C144.094 44.1722 143.835 44.0649 143.591 43.9296C156.412 32.2557 169.935 21.688 186.789 15.045C183.367 14.899 179.967 15.6513 176.927 17.2271C170.52 19.7172 164.313 22.6964 158.363 26.1383C150.105 31.6088 141.426 36.4775 134.288 43.471C133.334 44.4142 132.493 45.464 131.779 46.5997C130.799 48.4024 129.24 49.8219 127.353 50.6289C125.466 51.4359 123.363 51.5832 121.382 51.047C115.694 49.573 111.452 52.5305 107.337 55.3404C103.329 58.318 99.4729 61.495 95.7838 64.8598C95.3315 65.2535 94.6457 65.7219 95.0188 66.3945C95.3919 67.0672 96.143 66.6176 96.6643 66.4274C98.1972 65.8288 99.8404 65.5645 101.484 65.6523C103.127 65.7401 104.733 66.178 106.193 66.9366C108.818 68.2403 111.793 68.7672 114.551 70.4483C111.362 72.4341 107.985 74.1009 104.469 75.4244C91.6788 81.0651 79.4135 87.8275 67.8165 95.6322C66.7215 96.3934 65.3071 96.936 64.82 99.1303C67.6469 97.7053 70.0292 96.5489 72.3647 95.3085C86.3894 87.9257 100.689 81.1309 115.263 74.924C117.092 74.1184 118.103 74.3937 118.4 76.3177C118.887 79.7529 121.109 80.3895 124.15 80.4402C133.427 80.7342 142.586 82.6117 151.23 85.9916C154.347 87.1107 154.683 87.9141 152.279 90.2807C151.152 91.2396 149.82 91.9254 148.384 92.2847C146.949 92.6439 145.451 92.6669 144.005 92.3519C142.963 92.1368 141.882 92.1992 140.871 92.5327C139.86 92.8663 138.955 93.4593 138.245 94.2525C137.535 95.0458 137.046 96.0115 136.826 97.053C136.607 98.0946 136.665 99.1755 136.994 100.188C138.155 106.405 135.013 111.445 131.685 116.15C127.447 122.107 128.772 126.716 135.89 128.727C140.698 130.291 145.631 131.44 150.636 132.159C157.264 132.869 160.498 129.482 160.788 122.592C160.501 120.048 160.803 117.473 161.671 115.065C162.234 114.032 163.028 113.142 163.99 112.465C164.952 111.787 166.057 111.341 167.22 111.16C168.382 110.978 169.571 111.067 170.694 111.42C171.817 111.772 172.843 112.378 173.694 113.191C175.76 115.31 175.541 115.135 177.4 112.499C178.198 111.346 178.737 110.035 178.981 108.655C179.225 107.275 179.168 105.858 178.814 104.502C177.948 99.8059 176.633 95.204 174.886 90.7599C174.288 89.0467 174.669 88.6043 176.371 88.4411C181.033 87.6293 185.831 88.5607 189.851 91.0581C190.949 91.7764 192.198 92.2311 193.501 92.3867C197.788 93.23 202.134 93.742 206.5 93.9181C206.928 93.9467 207.345 94.0654 207.723 94.2666C208.102 94.4677 208.434 94.7466 208.697 95.0851C211.592 98.1634 214.565 101.165 217.484 104.208C218.561 105.337 219.859 106.231 221.297 106.835C222.735 107.439 224.282 107.741 225.842 107.72C227.725 107.699 229.586 108.123 231.274 108.958C232.962 109.793 234.429 111.015 235.555 112.525C236.173 113.479 237.083 114.21 238.148 114.607C239.214 115.004 240.38 115.047 241.472 114.729L241.95 114.64C243.609 114.578 245.567 113.964 246.114 116.399C246.28 117.413 246.043 118.451 245.456 119.294C244.869 120.137 243.976 120.718 242.968 120.914C230.212 123.668 221.566 132.026 213.958 141.798C211.686 145.055 209.156 148.124 206.392 150.975C205.475 151.858 204.854 151.85 203.893 151.008C201.108 148.3 197.53 146.552 193.682 146.018C191.529 145.673 189.323 146.111 187.465 147.253C185.607 148.394 184.22 150.163 183.554 152.24C182.939 153.747 182.459 155.321 181.915 156.876C181.37 158.432 180.83 158.687 179.288 158.048C177.759 157.311 176.051 157.031 174.368 157.241C172.684 157.451 171.097 158.143 169.797 159.232C168.902 159.94 167.866 160.446 166.759 160.717C165.651 160.988 164.498 161.017 163.378 160.802C162.69 160.64 161.976 160.624 161.281 160.753C160.586 160.883 159.926 161.157 159.343 161.556C157.789 162.643 155.908 163.158 154.017 163.015C150.318 162.822 146.64 163.676 143.404 165.478C140.168 167.281 137.506 169.959 135.723 173.206C131.71 179.518 129.529 186.822 129.425 194.301C129.258 196.317 129.88 198.318 131.159 199.885C132.438 201.452 134.275 202.461 136.283 202.702C138.384 203.152 140.511 203.478 142.651 203.678C144.75 203.743 146.8 204.329 148.616 205.383C150.432 206.436 151.959 207.925 153.058 209.714C156.072 214.638 158.47 219.914 160.198 225.423C160.63 226.687 160.729 228.04 160.487 229.352C160.245 230.665 159.669 231.894 158.815 232.92C158.342 233.534 157.372 234.303 158.501 235.05C159.631 235.798 160.089 234.939 160.67 234.243C161.605 233.283 162.293 232.111 162.678 230.828C163.063 229.544 163.133 228.187 162.881 226.871C161.2 219.299 157.845 212.2 153.062 206.094C151.912 204.76 150.502 203.675 148.916 202.907C147.331 202.14 145.606 201.705 143.846 201.629C141.732 201.406 139.653 201.206 137.528 200.923C136.695 200.931 135.871 200.757 135.113 200.412C134.355 200.067 133.682 199.56 133.141 198.926C132.601 198.292 132.207 197.547 131.986 196.744C131.765 195.941 131.723 195.1 131.864 194.279C131.885 186.725 134.236 179.362 138.597 173.195C140.159 170.935 142.234 169.079 144.653 167.777C147.071 166.476 149.764 165.767 152.51 165.709C153.44 165.819 154.383 165.769 155.297 165.56C160.724 163.154 167.201 164.543 172.23 160.665C173.206 159.998 174.356 159.631 175.539 159.608C176.721 159.585 177.884 159.907 178.886 160.535C179.476 160.763 179.981 161.17 180.329 161.698C180.677 162.226 180.852 162.85 180.829 163.482C180.862 164.342 181.078 165.186 181.462 165.957C181.846 166.728 182.389 167.408 183.056 167.953C184.797 169.824 186.48 169.726 188.565 167.976C190.928 165.542 194.064 164.005 197.435 163.628C198.516 163.514 199.558 163.159 200.485 162.59C201.411 162.021 202.199 161.252 202.79 160.339C209.742 152.019 215.627 142.785 223.387 135.15C227.039 131.49 231.232 128.412 235.818 126.023C237.981 124.926 240.349 124.294 242.771 124.168C245.827 123.968 246.934 125.092 246.608 128.153C246.651 130.121 246.055 132.051 244.91 133.653C243.766 135.255 242.133 136.443 240.257 137.041C232.314 139.885 226.729 145.754 221.401 152.007C219.714 154 218.743 156.501 218.645 159.11C218.03 166.978 216.502 174.747 214.092 182.262C212.013 189.441 211.161 196.92 211.573 204.383C211.713 207.527 211.154 210.663 209.936 213.565C208.718 216.466 206.872 219.062 204.531 221.164C202.363 223.301 200.165 225.444 198.109 227.684C194.943 230.982 192.804 235.13 191.952 239.622C191.1 244.113 191.571 248.756 193.308 252.985C195.481 257.819 195.741 263.296 194.036 268.314C192.4 272.202 190.378 275.916 188.003 279.401C186.356 281.843 183.518 282.713 181.378 284.505C180.429 285.213 179.542 285.999 178.725 286.856C178.165 287.428 177.82 288.176 177.749 288.973C177.678 289.77 177.885 290.566 178.335 291.228C178.902 292.059 179.255 293.018 179.361 294.018C179.466 295.019 179.322 296.03 178.942 296.961C177.33 302.832 174.889 308.444 171.692 313.626C166.15 321.713 164.975 331.15 165.257 340.779C165.321 342.777 165.445 344.764 165.538 347.252C162.047 345.121 159.019 343.15 155.869 341.357C149.321 337.85 143.124 333.725 137.361 329.039C129.872 322.919 121.794 317.559 113.246 313.035C109.272 310.247 105.811 306.791 103.018 302.821C95.4067 293.272 90.835 281.66 89.8943 269.485C88.0831 254.656 87.7009 239.688 88.7529 224.786C89.6081 217.14 89.0642 209.402 87.1477 201.95C83.0983 188.88 75.5318 178.509 62.964 172.659C54.6135 168.823 45.3282 167.494 36.237 168.836C27.8321 169.697 19.5778 171.665 11.6884 174.689C10.4618 175.191 9.31734 175.874 8.29326 176.715C7.21495 177.566 6.6109 178.638 7.44673 179.966C8.28256 181.295 7.60034 181.948 7.27843 182.874C4.69005 190.478 2.48963 198.208 0.685693 206.036M197.752 15.7812C196.527 16.0101 195.949 16.3963 196.208 17.6162C196.467 18.836 196.86 19.2883 197.925 19.0275C198.99 18.7668 200.363 18.1701 200.237 16.8326C200.111 15.4952 198.512 16.0414 197.752 15.7812ZM134.13 45.109C132.546 45.4048 131.32 46.6236 131.515 47.6697C131.711 48.7158 132.439 48.6416 133.11 48.4235C134.391 47.9986 135.699 47.3831 135.724 45.8628C135.75 44.3424 134.709 45.0627 134.07 45.1201L134.13 45.109Z" fill="#363636" fill-opacity="0.03"/>
</svg>
