<svg width="1420" height="367" viewBox="0 0 1420 367" fill="none" xmlns="http://www.w3.org/2000/svg">
<g clip-path="url(#clip0_561_11274)">
<path d="M-28.4591 170.522C-26.0481 165.71 -23.8799 160.759 -21.2207 156.117C-16.5671 148.084 -11.397 140.361 -5.743 132.998C6.31336 117.229 19.2378 102.133 32.0837 87.1144C44.6443 72.6132 58.8152 59.5894 74.3226 48.2946C90.5989 36.2083 108.653 26.7218 127.839 20.1737C142.305 15.3446 157.172 11.8122 172.264 9.61852C185.348 7.73093 198.599 7.26802 211.783 8.23802C215.92 8.89483 220.111 9.14799 224.297 8.99394L226.708 21.9057C226.512 22.0903 226.281 22.2341 226.028 22.3287C225.776 22.4233 225.507 22.4668 225.237 22.4567C224.968 22.4466 224.703 22.3831 224.458 22.2699C224.214 22.1567 223.994 21.996 223.812 21.7972C222.973 21.1186 222.262 20.2925 221.478 19.5729C221.353 19.4182 221.181 19.3087 220.988 19.261C220.795 19.2133 220.591 19.2301 220.408 19.3088C220.322 19.3589 220.248 19.4261 220.189 19.5061C220.13 19.5862 220.088 19.6775 220.065 19.7743C220.043 19.8712 220.04 19.9717 220.058 20.0695C220.076 20.1674 220.113 20.2606 220.169 20.3434C220.923 22.2099 222.103 23.8747 223.613 25.2058C224.279 25.7927 224.879 25.526 225.406 24.8708L226.954 23.2208L229.801 38.4638C228.542 38.5133 229.044 39.3785 229.126 39.9818C229.596 43.3273 229.971 46.6597 230.62 49.9717C232.562 59.5379 228.804 67.5705 224.076 75.3819C222.938 77.2339 220.795 77.3557 219.061 78.1744C217.327 78.9931 216.022 78.4636 214.748 79.7533C214.655 79.8226 214.547 79.8697 214.433 79.8909C214.319 79.9122 214.202 79.9072 214.09 79.8762C210.682 78.1928 206.827 78.9129 203.414 77.1996C197.479 74.4002 192.279 70.2564 188.224 65.097C186.289 62.4358 184.913 59.4097 184.181 56.2017C182.661 50.3319 179.333 45.0888 174.67 41.2136C171.182 38.4407 167.915 35.4003 164.899 32.12C163.165 30.124 162.418 30.2635 160.627 32.2682C158.836 34.273 156.406 34.5103 154.622 31.7504C154.02 31.0476 153.218 30.5448 152.323 30.3086C151.428 30.0725 150.483 30.1142 149.612 30.4282L139.291 35.449C135.748 37.3002 132.625 39.8631 130.119 42.9771C129.732 43.3896 129.421 43.8806 129.808 44.458C130.194 45.0354 130.614 44.8023 131.092 44.713L131.78 44.5846C133.812 44.205 136.12 43.31 137.947 44.4843C140.756 46.2049 143.079 48.6133 144.698 51.482C145.252 52.4611 144.994 53.066 143.88 53.3977C137.88 55.3845 132.334 58.6474 126.184 60.1672C125.228 60.3458 124.63 60.4575 123.979 59.6202C120.161 54.5802 114.561 52.7495 108.672 51.5294C107.929 51.359 107.124 51.3547 106.362 51.2495C106.094 51.1723 105.835 51.0649 105.591 50.9296C118.412 39.2557 131.935 28.688 148.789 22.045C145.367 21.899 141.967 22.6513 138.927 24.2271C132.52 26.7172 126.313 29.6964 120.363 33.1383C112.105 38.6088 103.426 43.4775 96.288 50.471C95.3345 51.4142 94.4927 52.464 93.7792 53.5997C92.799 55.4024 91.2396 56.8219 89.353 57.6289C87.4663 58.4359 85.3626 58.5832 83.3819 58.047C77.6937 56.573 73.4518 59.5305 69.337 62.3404C65.3289 65.318 61.4729 68.495 57.7838 71.8598C57.3315 72.2535 56.6457 72.7219 57.0188 73.3945C57.3919 74.0672 58.143 73.6176 58.6643 73.4274C60.1972 72.8288 61.8404 72.5645 63.4837 72.6523C65.1271 72.7401 66.7328 73.178 68.1932 73.9366C70.8184 75.2403 73.7934 75.7672 76.5509 77.4483C73.3618 79.4341 69.9848 81.1009 66.4689 82.4244C53.6788 88.0651 41.4135 94.8275 29.8165 102.632C28.7215 103.393 27.3071 103.936 26.82 106.13C29.6469 104.705 32.0292 103.549 34.3647 102.309C48.3894 94.9258 62.6889 88.1309 77.2631 81.924C79.0923 81.1184 80.1025 81.3937 80.4 83.3177C80.8869 86.7529 83.1091 87.3895 86.1498 87.4402C95.427 87.7342 104.586 89.6117 113.23 92.9916C116.347 94.1107 116.683 94.9141 114.279 97.2807C113.152 98.2396 111.82 98.9254 110.384 99.2847C108.949 99.6439 107.451 99.6669 106.005 99.3519C104.963 99.1368 103.882 99.1992 102.871 99.5327C101.86 99.8663 100.955 100.459 100.245 101.253C99.5352 102.046 99.046 103.011 98.8264 104.053C98.6069 105.095 98.6645 106.176 98.9937 107.188C100.155 113.405 97.0133 118.445 93.6854 123.15C89.4469 129.107 90.7717 133.716 97.8902 135.727C102.698 137.291 107.631 138.44 112.636 139.159C119.264 139.869 122.498 136.482 122.788 129.592C122.501 127.048 122.803 124.473 123.671 122.065C124.234 121.032 125.028 120.142 125.99 119.465C126.952 118.787 128.057 118.341 129.22 118.16C130.382 117.978 131.571 118.067 132.694 118.42C133.817 118.772 134.843 119.378 135.694 120.191C137.76 122.31 137.541 122.135 139.4 119.499C140.198 118.346 140.737 117.035 140.981 115.655C141.225 114.275 141.168 112.858 140.814 111.502C139.948 106.806 138.633 102.204 136.886 97.7599C136.288 96.0467 136.669 95.6043 138.371 95.4411C143.033 94.6293 147.831 95.5607 151.851 98.0581C152.949 98.7764 154.198 99.2311 155.501 99.3867C159.788 100.23 164.134 100.742 168.5 100.918C168.928 100.947 169.345 101.065 169.723 101.267C170.102 101.468 170.434 101.747 170.697 102.085C173.592 105.163 176.565 108.165 179.484 111.208C180.561 112.337 181.859 113.231 183.297 113.835C184.735 114.439 186.282 114.741 187.842 114.72C189.725 114.699 191.586 115.123 193.274 115.958C194.962 116.793 196.429 118.015 197.555 119.525C198.173 120.479 199.083 121.21 200.148 121.607C201.214 122.004 202.38 122.047 203.472 121.729L203.95 121.64C205.609 121.578 207.567 120.964 208.114 123.399C208.28 124.413 208.043 125.451 207.456 126.294C206.869 127.137 205.976 127.718 204.968 127.914C192.212 130.668 183.566 139.026 175.958 148.798C173.686 152.055 171.156 155.124 168.392 157.975C167.475 158.858 166.854 158.85 165.893 158.008C163.108 155.3 159.53 153.552 155.682 153.018C153.529 152.673 151.323 153.111 149.465 154.253C147.607 155.394 146.22 157.163 145.554 159.24C144.939 160.747 144.459 162.321 143.915 163.876C143.37 165.432 142.83 165.687 141.288 165.048C139.759 164.311 138.051 164.031 136.368 164.241C134.684 164.451 133.097 165.143 131.797 166.232C130.902 166.94 129.866 167.446 128.759 167.717C127.651 167.988 126.498 168.017 125.378 167.802C124.69 167.64 123.976 167.624 123.281 167.753C122.586 167.883 121.926 168.157 121.343 168.556C119.789 169.643 117.908 170.158 116.017 170.015C112.318 169.822 108.64 170.676 105.404 172.478C102.168 174.281 99.5057 176.959 97.7226 180.206C93.7097 186.518 91.5293 193.822 91.4245 201.301C91.2584 203.317 91.8802 205.318 93.1592 206.885C94.4382 208.452 96.2746 209.461 98.2826 209.702C100.384 210.152 102.511 210.478 104.651 210.678C106.75 210.743 108.8 211.329 110.616 212.383C112.432 213.436 113.959 214.925 115.058 216.714C118.072 221.638 120.47 226.914 122.198 232.423C122.63 233.687 122.729 235.04 122.487 236.352C122.245 237.665 121.669 238.894 120.815 239.92C120.342 240.534 119.372 241.303 120.501 242.05C121.631 242.798 122.089 241.939 122.67 241.243C123.605 240.283 124.293 239.111 124.678 237.828C125.063 236.544 125.133 235.187 124.881 233.871C123.2 226.299 119.845 219.2 115.062 213.094C113.912 211.76 112.502 210.675 110.916 209.907C109.331 209.14 107.606 208.705 105.846 208.629C103.732 208.406 101.653 208.206 99.5279 207.923C98.6951 207.931 97.8705 207.757 97.1126 207.412C96.3546 207.067 95.6817 206.56 95.1414 205.926C94.6011 205.292 94.2066 204.547 93.9859 203.744C93.7651 202.941 93.7235 202.1 93.8639 201.279C93.885 193.725 96.2363 186.362 100.597 180.195C102.159 177.935 104.234 176.079 106.653 174.777C109.071 173.476 111.764 172.767 114.51 172.709C115.44 172.819 116.383 172.769 117.297 172.56C122.724 170.154 129.201 171.543 134.23 167.665C135.206 166.998 136.356 166.631 137.539 166.608C138.721 166.585 139.884 166.907 140.886 167.535C141.476 167.763 141.981 168.17 142.329 168.698C142.677 169.226 142.852 169.85 142.829 170.482C142.862 171.342 143.078 172.186 143.462 172.957C143.846 173.728 144.389 174.408 145.056 174.953C146.797 176.824 148.48 176.726 150.565 174.976C152.928 172.542 156.064 171.005 159.435 170.628C160.516 170.514 161.558 170.159 162.485 169.59C163.411 169.021 164.199 168.252 164.79 167.339C171.742 159.019 177.627 149.785 185.387 142.15C189.039 138.49 193.232 135.412 197.818 133.023C199.981 131.926 202.349 131.294 204.771 131.168C207.827 130.968 208.934 132.092 208.608 135.153C208.651 137.121 208.055 139.051 206.91 140.653C205.766 142.255 204.133 143.443 202.257 144.041C194.314 146.885 188.729 152.754 183.401 159.007C181.714 161 180.743 163.501 180.645 166.11C180.03 173.978 178.502 181.747 176.092 189.262C174.013 196.441 173.161 203.92 173.573 211.384C173.713 214.527 173.154 217.663 171.936 220.565C170.718 223.466 168.872 226.062 166.531 228.164C164.363 230.301 162.165 232.444 160.109 234.684C156.943 237.982 154.804 242.13 153.952 246.622C153.1 251.113 153.571 255.756 155.308 259.985C157.481 264.819 157.741 270.296 156.036 275.314C154.4 279.202 152.378 282.915 150.003 286.401C148.356 288.843 145.518 289.713 143.378 291.505C142.429 292.213 141.542 292.999 140.725 293.856C140.165 294.428 139.82 295.176 139.749 295.973C139.678 296.77 139.885 297.566 140.335 298.228C140.902 299.059 141.255 300.018 141.361 301.018C141.466 302.019 141.322 303.03 140.942 303.961C139.33 309.832 136.889 315.444 133.692 320.626C128.15 328.713 126.974 338.15 127.257 347.779C127.321 349.777 127.445 351.764 127.538 354.252C124.047 352.121 121.019 350.15 117.869 348.357C111.321 344.85 105.124 340.725 99.361 336.039C91.872 329.919 83.7942 324.559 75.2463 320.035C71.2721 317.247 67.8114 313.791 65.0181 309.821C57.4067 300.272 52.835 288.66 51.8943 276.485C50.0831 261.656 49.7009 246.688 50.7529 231.786C51.6081 224.14 51.0642 216.402 49.1477 208.95C45.0983 195.88 37.5318 185.509 24.964 179.659C16.6135 175.823 7.32823 174.494 -1.76304 175.836C-10.1679 176.697 -18.4222 178.665 -26.3116 181.689C-27.5382 182.191 -28.6827 182.874 -29.7067 183.715C-30.785 184.566 -31.3891 185.638 -30.5533 186.966C-29.7174 188.295 -30.3997 188.948 -30.7216 189.874C-33.31 197.478 -35.5104 205.208 -37.3143 213.036M159.752 22.7812C158.527 23.0101 157.949 23.3963 158.208 24.6162C158.467 25.836 158.86 26.2883 159.925 26.0275C160.99 25.7668 162.363 25.1701 162.237 23.8326C162.111 22.4952 160.512 23.0414 159.752 22.7812ZM96.1299 52.109C94.5459 52.4048 93.3197 53.6236 93.5151 54.6697C93.7105 55.7158 94.439 55.6416 95.1097 55.4235C96.3913 54.9986 97.6991 54.3831 97.7245 52.8628C97.7498 51.3424 96.709 52.0627 96.0702 52.1201L96.1299 52.109Z" fill="#363636" fill-opacity="0.03"/>
<path opacity="0.1" d="M1441.48 130.872C1439.14 126.22 1437.05 121.432 1434.48 116.944C1429.98 109.177 1424.98 101.71 1419.51 94.5908C1407.86 79.3446 1395.36 64.7491 1382.94 50.2276C1370.79 36.2068 1357.09 23.6144 1342.1 12.6937C1326.36 1.00783 1308.91 -8.16445 1290.36 -14.4955C1276.37 -19.1647 1261.99 -22.5801 1247.4 -24.7011C1234.75 -26.5262 1221.94 -26.9737 1209.19 -26.0359C1205.19 -25.4008 1201.14 -25.156 1197.09 -25.305L1194.76 -12.821C1194.95 -12.6424 1195.17 -12.5034 1195.42 -12.412C1195.66 -12.3205 1195.92 -12.2785 1196.18 -12.2882C1196.44 -12.298 1196.7 -12.3594 1196.94 -12.4689C1197.17 -12.5783 1197.39 -12.7336 1197.56 -12.9259C1198.37 -13.582 1199.06 -14.3807 1199.82 -15.0765C1199.94 -15.2261 1200.11 -15.332 1200.29 -15.3781C1200.48 -15.4242 1200.68 -15.408 1200.85 -15.3318C1200.94 -15.2834 1201.01 -15.2184 1201.07 -15.141C1201.12 -15.0636 1201.16 -14.9754 1201.18 -14.8817C1201.21 -14.788 1201.21 -14.6909 1201.19 -14.5963C1201.17 -14.5017 1201.14 -14.4116 1201.08 -14.3315C1200.35 -12.5269 1199.21 -10.9172 1197.75 -9.63023C1197.11 -9.06273 1196.53 -9.32056 1196.02 -9.95407L1194.52 -11.5494L1191.77 3.18858C1192.99 3.23649 1192.5 4.07299 1192.42 4.65635C1191.97 7.89103 1191.61 11.113 1190.98 14.3153C1189.1 23.5646 1192.74 31.331 1197.31 38.8837C1198.41 40.6744 1200.48 40.7921 1202.16 41.5837C1203.83 42.3753 1205.09 41.8633 1206.33 43.1103C1206.42 43.1773 1206.52 43.2228 1206.63 43.2434C1206.74 43.264 1206.85 43.2591 1206.96 43.2291C1210.26 41.6014 1213.98 42.2977 1217.28 40.6412C1223.02 37.9345 1228.05 33.928 1231.97 28.9395C1233.84 26.3665 1235.17 23.4406 1235.88 20.3388C1237.35 14.6636 1240.57 9.59411 1245.08 5.84729C1248.45 3.16628 1251.61 0.226603 1254.52 -2.94506C1256.2 -4.87494 1256.92 -4.74002 1258.65 -2.8017C1260.39 -0.863391 1262.73 -0.633886 1264.46 -3.30241C1265.04 -3.98188 1265.82 -4.46806 1266.68 -4.6964C1267.55 -4.92474 1268.46 -4.88442 1269.3 -4.58078L1279.28 0.273666C1282.71 2.06358 1285.73 4.54152 1288.15 7.55237C1288.53 7.95121 1288.83 8.42597 1288.45 8.98425C1288.08 9.54254 1287.67 9.3171 1287.21 9.23074L1286.55 9.1066C1284.58 8.73958 1282.35 7.87431 1280.58 9.00966C1277.87 10.6732 1275.62 13.0019 1274.05 15.7755C1273.52 16.7222 1273.77 17.3071 1274.85 17.6278C1280.65 19.5488 1286.01 22.7036 1291.96 24.173C1292.88 24.3457 1293.46 24.4537 1294.09 23.6442C1297.78 18.7711 1303.19 17.0011 1308.89 15.8214C1309.61 15.6566 1310.38 15.6524 1311.12 15.5508C1311.38 15.4761 1311.63 15.3723 1311.87 15.2415C1299.47 3.95431 1286.4 -6.2633 1270.1 -12.6862C1273.41 -12.8275 1276.7 -12.1001 1279.63 -10.5764C1285.83 -8.16881 1291.83 -5.28833 1297.58 -1.96049C1305.57 3.32878 1313.96 8.03625 1320.86 14.7981C1321.78 15.71 1322.6 16.725 1323.29 17.8231C1324.23 19.5661 1325.74 20.9386 1327.57 21.7189C1329.39 22.4991 1331.42 22.6415 1333.34 22.123C1338.84 20.6979 1342.94 23.5574 1346.92 26.2743C1350.79 29.1531 1354.52 32.225 1358.09 35.4782C1358.53 35.859 1359.19 36.3118 1358.83 36.9622C1358.47 37.6125 1357.74 37.1778 1357.24 36.994C1355.76 36.4151 1354.17 36.1596 1352.58 36.2445C1350.99 36.3294 1349.44 36.7528 1348.03 37.4863C1345.49 38.7468 1342.61 39.2563 1339.94 40.8816C1343.03 42.8017 1346.29 44.4132 1349.69 45.6929C1362.06 51.1468 1373.92 57.6851 1385.13 65.2312C1386.19 65.9673 1387.56 66.4918 1388.03 68.6134C1385.29 67.2357 1382.99 66.1176 1380.73 64.9183C1367.17 57.7801 1353.35 51.2104 1339.26 45.2091C1337.49 44.4302 1336.51 44.6963 1336.22 46.5566C1335.75 49.878 1333.6 50.4935 1330.66 50.5425C1321.69 50.8268 1312.84 52.6421 1304.48 55.91C1301.47 56.9921 1301.14 57.7688 1303.47 60.0571C1304.56 60.9842 1305.84 61.6473 1307.23 61.9946C1308.62 62.342 1310.07 62.3642 1311.47 62.0596C1312.47 61.8517 1313.52 61.912 1314.5 62.2345C1315.47 62.557 1316.35 63.1303 1317.04 63.8973C1317.72 64.6643 1318.19 65.598 1318.41 66.605C1318.62 67.6121 1318.56 68.6572 1318.25 69.636C1317.12 75.6468 1320.16 80.5206 1323.38 85.0692C1327.48 90.8289 1326.19 95.2849 1319.31 97.2293C1314.66 98.7421 1309.89 99.8524 1305.06 100.548C1298.65 101.235 1295.52 97.9594 1295.24 91.2977C1295.52 88.8386 1295.22 86.3484 1294.39 84.0205C1293.84 83.0214 1293.07 82.1611 1292.14 81.5062C1291.21 80.8514 1290.14 80.4196 1289.02 80.2444C1287.9 80.0691 1286.75 80.1551 1285.66 80.4957C1284.58 80.8363 1283.58 81.4223 1282.76 82.2083C1280.76 84.2576 1280.97 84.0877 1279.18 81.5391C1278.41 80.4248 1277.88 79.1571 1277.65 77.8226C1277.41 76.4881 1277.47 75.1184 1277.81 73.8072C1278.65 69.2667 1279.92 64.8173 1281.61 60.5204C1282.19 58.8639 1281.82 58.4362 1280.17 58.2784C1275.66 57.4935 1271.03 58.3941 1267.14 60.8086C1266.08 61.5032 1264.87 61.9428 1263.61 62.0933C1259.46 62.9086 1255.26 63.4037 1251.04 63.574C1250.63 63.6016 1250.22 63.7164 1249.86 63.9109C1249.49 64.1053 1249.17 64.375 1248.92 64.7023C1246.12 67.6786 1243.24 70.5809 1240.42 73.5229C1239.38 74.6141 1238.13 75.4789 1236.73 76.0631C1235.34 76.6473 1233.85 76.9385 1232.34 76.9183C1230.52 76.8979 1228.72 77.3081 1227.09 78.1155C1225.46 78.9229 1224.04 80.1046 1222.95 81.5642C1222.35 82.4873 1221.47 83.1932 1220.44 83.5771C1219.41 83.9611 1218.28 84.0026 1217.23 83.6956L1216.77 83.6092C1215.16 83.549 1213.27 82.9562 1212.74 85.3096C1212.58 86.2901 1212.81 87.2943 1213.38 88.1093C1213.94 88.9244 1214.81 89.4863 1215.78 89.6759C1228.11 92.3382 1236.47 100.419 1243.83 109.868C1246.03 113.017 1248.47 115.984 1251.15 118.74C1252.03 119.594 1252.63 119.586 1253.56 118.773C1256.26 116.154 1259.71 114.464 1263.44 113.948C1265.52 113.615 1267.65 114.038 1269.45 115.142C1271.24 116.245 1272.58 117.956 1273.23 119.964C1273.82 121.421 1274.29 122.943 1274.81 124.447C1275.34 125.951 1275.86 126.198 1277.35 125.579C1278.83 124.867 1280.48 124.596 1282.11 124.799C1283.74 125.003 1285.27 125.671 1286.53 126.725C1287.39 127.409 1288.4 127.898 1289.47 128.16C1290.54 128.422 1291.65 128.45 1292.73 128.243C1293.4 128.086 1294.09 128.07 1294.76 128.195C1295.43 128.321 1296.07 128.585 1296.64 128.971C1298.14 130.022 1299.96 130.52 1301.79 130.382C1305.36 130.195 1308.92 131.021 1312.05 132.764C1315.18 134.506 1317.75 137.096 1319.47 140.235C1323.35 146.339 1325.46 153.4 1325.56 160.632C1325.72 162.58 1325.12 164.516 1323.89 166.03C1322.65 167.545 1320.87 168.521 1318.93 168.754C1316.9 169.189 1314.84 169.504 1312.78 169.697C1310.75 169.761 1308.76 170.327 1307.01 171.346C1305.25 172.365 1303.78 173.804 1302.71 175.534C1299.8 180.295 1297.48 185.396 1295.81 190.723C1295.39 191.944 1295.3 193.252 1295.53 194.522C1295.76 195.791 1296.32 196.979 1297.15 197.971C1297.6 198.564 1298.54 199.308 1297.45 200.031C1296.36 200.754 1295.92 199.924 1295.35 199.25C1294.45 198.322 1293.78 197.189 1293.41 195.948C1293.04 194.707 1292.97 193.395 1293.22 192.122C1294.84 184.802 1298.08 177.938 1302.71 172.034C1303.82 170.744 1305.18 169.695 1306.72 168.953C1308.25 168.21 1309.92 167.79 1311.62 167.717C1313.66 167.501 1315.67 167.308 1317.73 167.034C1318.53 167.042 1319.33 166.874 1320.06 166.54C1320.8 166.206 1321.45 165.716 1321.97 165.103C1322.49 164.49 1322.87 163.77 1323.09 162.994C1323.3 162.217 1323.34 161.404 1323.21 160.61C1323.18 153.307 1320.91 146.187 1316.7 140.224C1315.19 138.04 1313.18 136.245 1310.84 134.987C1308.5 133.728 1305.9 133.043 1303.24 132.987C1302.34 133.093 1301.43 133.044 1300.55 132.842C1295.3 130.516 1289.04 131.859 1284.18 128.11C1283.23 127.465 1282.12 127.11 1280.98 127.088C1279.83 127.065 1278.71 127.377 1277.74 127.984C1277.17 128.205 1276.68 128.598 1276.35 129.108C1276.01 129.619 1275.84 130.222 1275.86 130.833C1275.83 131.665 1275.62 132.481 1275.25 133.226C1274.88 133.971 1274.35 134.629 1273.71 135.156C1272.03 136.965 1270.4 136.871 1268.38 135.178C1266.1 132.825 1263.07 131.339 1259.81 130.975C1258.76 130.864 1257.75 130.521 1256.86 129.971C1255.96 129.42 1255.2 128.677 1254.63 127.795C1247.91 119.75 1242.22 110.822 1234.71 103.44C1231.18 99.9008 1227.13 96.9248 1222.69 94.6156C1220.6 93.5546 1218.31 92.9435 1215.97 92.8217C1213.02 92.6287 1211.95 93.7148 1212.26 96.6744C1212.22 98.5777 1212.8 100.443 1213.9 101.992C1215.01 103.541 1216.59 104.69 1218.4 105.268C1226.08 108.018 1231.48 113.692 1236.63 119.738C1238.27 121.665 1239.2 124.083 1239.3 126.606C1239.89 134.213 1241.37 141.725 1243.7 148.991C1245.71 155.933 1246.53 163.164 1246.14 170.38C1246 173.419 1246.54 176.451 1247.72 179.257C1248.9 182.062 1250.68 184.572 1252.95 186.605C1255.04 188.671 1257.17 190.743 1259.15 192.908C1262.22 196.098 1264.28 200.108 1265.11 204.451C1265.93 208.794 1265.48 213.282 1263.8 217.371C1261.7 222.045 1261.44 227.341 1263.09 232.193C1264.67 235.951 1266.63 239.542 1268.93 242.912C1270.52 245.273 1273.26 246.115 1275.33 247.847C1276.25 248.531 1277.11 249.292 1277.9 250.12C1278.44 250.673 1278.77 251.396 1278.84 252.167C1278.91 252.937 1278.71 253.708 1278.27 254.348C1277.73 255.151 1277.38 256.078 1277.28 257.045C1277.18 258.012 1277.32 258.99 1277.69 259.89C1279.25 265.567 1281.61 270.993 1284.7 276.003C1290.05 283.822 1291.19 292.947 1290.92 302.256C1290.86 304.189 1290.74 306.11 1290.65 308.516C1294.02 306.455 1296.95 304.549 1299.99 302.815C1306.33 299.425 1312.32 295.437 1317.89 290.905C1325.13 284.989 1332.94 279.806 1341.21 275.432C1345.05 272.737 1348.39 269.395 1351.1 265.556C1358.45 256.324 1362.87 245.096 1363.78 233.325C1365.54 218.987 1365.91 204.515 1364.89 190.107C1364.06 182.714 1364.59 175.232 1366.44 168.027C1370.36 155.39 1377.67 145.362 1389.82 139.707C1397.9 135.997 1406.87 134.713 1415.66 136.01C1423.79 136.843 1431.77 138.746 1439.4 141.669C1440.59 142.154 1441.69 142.815 1442.68 143.628C1443.72 144.451 1444.31 145.487 1443.5 146.771C1442.69 148.056 1443.35 148.688 1443.66 149.583C1446.17 156.935 1448.29 164.409 1450.04 171.977M1259.5 -11.9744C1260.68 -11.7531 1261.24 -11.3797 1260.99 -10.2003C1260.74 -9.02088 1260.36 -8.58357 1259.33 -8.83567C1258.3 -9.08777 1256.97 -9.66475 1257.1 -10.9579C1257.22 -12.251 1258.76 -11.7229 1259.5 -11.9744ZM1321.01 16.3818C1322.55 16.6678 1323.73 17.8462 1323.54 18.8577C1323.35 19.8691 1322.65 19.7973 1322 19.5865C1320.76 19.1756 1319.5 18.5806 1319.47 17.1106C1319.45 15.6406 1320.45 16.337 1321.07 16.3925L1321.01 16.3818Z" fill="#7DAC00"/>
</g>
<defs>
<clipPath id="clip0_561_11274">
<rect width="1420" height="367" fill="white"/>
</clipPath>
</defs>
</svg>
