<svg width="80" height="80" viewBox="0 0 80 80" fill="none" xmlns="http://www.w3.org/2000/svg">
<g clip-path="url(#clip0_469_10765)">
<circle cx="40" cy="40" r="38.125" fill="white" stroke="#DCFF80" stroke-width="3.75"/>
<path d="M64.5395 27.8946C60.7464 26.2632 57.3857 27.0789 54.1636 29.9829C54.0902 29.314 54.0576 28.9551 54.0086 28.588C53.5697 25.5768 52.0853 22.816 49.8154 20.7893C47.5456 18.7625 44.635 17.599 41.5935 17.5025C35.0678 17.3883 30.0512 21.1977 28.3953 27.6336C28.1098 28.743 27.8814 29.0203 26.7068 28.4493C26.0151 28.1018 25.2442 27.9424 24.4714 27.987C23.6986 28.0316 22.9511 28.2787 22.304 28.7035C21.6569 29.1283 21.1329 29.7159 20.7846 30.4072C20.4364 31.0985 20.276 31.8692 20.3198 32.6421C20.3198 33.7107 20.0261 33.9635 18.9983 34.0696C14.2264 34.5835 10.8412 38.5886 11.2899 42.9771C11.8038 47.6756 15.6376 50.6937 20.6542 50.2533C21.6412 50.1635 21.9675 50.1635 22.0246 51.3789C22.3835 58.9406 29.7983 62.7989 36.2261 58.7203C36.9929 58.2472 37.36 58.3614 37.9799 58.9487C38.3915 59.4063 38.8946 59.7722 39.4567 60.0226C40.0189 60.273 40.6274 60.4025 41.2428 60.4025C41.8582 60.4025 42.4667 60.273 43.0288 60.0226C43.5909 59.7722 44.0941 59.4063 44.5056 58.9487C45.2316 58.2472 45.6231 58.3451 46.3573 58.9487C50.289 61.9995 55.379 62.0484 58.9192 59.1445C60.8004 57.7018 62.1078 55.6376 62.6083 53.3204C63.1088 51.0031 62.7698 48.5834 61.6518 46.4928C61.1053 45.3916 61.3174 45.2366 62.4675 45.0898C64.3342 44.7496 66.0504 43.8415 67.3818 42.4897C68.7132 41.1378 69.595 39.408 69.9068 37.5363C70.1913 35.5632 69.8202 33.5513 68.8506 31.8095C67.881 30.0677 66.3664 28.6924 64.5395 27.8946Z" fill="#363636"/>
<path d="M36.9086 39.3686H34.9748C34.7077 38.2267 34.0033 37.6558 32.8614 37.6558C32.005 37.6558 31.3466 37.9965 30.8861 38.6779C30.4902 39.2765 30.2922 40.073 30.2922 41.0676C30.2922 42.191 30.5408 43.0474 31.0381 43.6368C31.4709 44.1433 32.0556 44.3965 32.7923 44.3965C33.4277 44.3965 33.9342 44.2307 34.3118 43.8992C34.6893 43.5677 34.9103 43.0935 34.9748 42.4765H36.95C36.8856 43.6736 36.4251 44.5991 35.5687 45.2529C34.832 45.8238 33.8882 46.1093 32.7371 46.1093C31.2637 46.1093 30.1218 45.5936 29.3115 44.5623C28.6116 43.669 28.2617 42.4903 28.2617 41.0261C28.2617 39.3502 28.7221 38.0517 29.643 37.1309C30.4441 36.3205 31.4893 35.9153 32.7785 35.9153C34.3072 35.9153 35.4628 36.4264 36.2456 37.4486C36.6323 37.9551 36.8533 38.5951 36.9086 39.3686Z" fill="#DCFF80"/>
<path d="M42.7927 35.9153C44.1924 35.9153 45.3159 36.362 46.1631 37.2552C47.0839 38.2221 47.5444 39.4745 47.5444 41.0123C47.5444 42.5318 47.0839 43.7841 46.1631 44.7695C45.3251 45.6627 44.2016 46.1093 42.7927 46.1093C41.3746 46.1093 40.2465 45.6627 39.4085 44.7695C38.4877 43.7841 38.0272 42.5318 38.0272 41.0123C38.0272 39.4929 38.4877 38.2405 39.4085 37.2552C40.2557 36.362 41.3838 35.9153 42.7927 35.9153ZM42.7927 37.6558C41.9087 37.6558 41.2134 38.0011 40.707 38.6917C40.2741 39.2903 40.0577 40.0638 40.0577 41.0123C40.0577 42.0989 40.3386 42.9507 40.9003 43.5677C41.3884 44.1018 42.0192 44.3689 42.7927 44.3689C43.6767 44.3689 44.3674 44.0236 44.8647 43.3329C45.2975 42.7343 45.5139 41.9608 45.5139 41.0123C45.5139 39.9257 45.233 39.0739 44.6713 38.4569C44.1832 37.9228 43.557 37.6558 42.7927 37.6558Z" fill="#DCFF80"/>
<path d="M48.9198 36.8132C49.7947 36.2422 50.6787 35.9568 51.5719 35.9568C52.4652 35.9568 53.1466 36.2192 53.6163 36.7441C54.0307 37.1953 54.2378 37.7985 54.2378 38.5536C54.2378 39.1153 54.1043 39.6679 53.8373 40.2112C53.5702 40.7545 53.1052 41.4313 52.4422 42.2417C51.6963 43.1441 51.2819 43.6368 51.199 43.7197L50.384 44.5484H54.4312V45.101L53.7406 45.9574H48.5055V44.5484L49.5276 43.4987L50.5222 42.366C51.2865 41.5188 51.7791 40.934 52.0001 40.6117C52.4698 39.9395 52.7046 39.3456 52.7046 38.8299C52.7046 38.4247 52.5711 38.0978 52.304 37.8492C52.0462 37.5913 51.7055 37.4624 51.2819 37.4624C50.7846 37.4624 50.2781 37.642 49.7624 38.0011L48.9198 36.8132Z" fill="#DCFF80"/>
</g>
<defs>
<clipPath id="clip0_469_10765">
<rect width="80" height="80" fill="white"/>
</clipPath>
</defs>
</svg>
