<svg width="111" height="52" viewBox="0 0 111 52" fill="none" xmlns="http://www.w3.org/2000/svg">
<circle cx="73.151" cy="18.965" r="18.6368" fill="#DCFF80"/>
<path d="M81.897 2.48051C82.0831 2.57037 82.2704 2.65588 82.4569 2.7436C82.6453 2.76153 82.7812 2.88724 82.9369 2.97467C82.9558 2.98379 82.9749 2.99331 82.9937 3.00164C83.0024 3.00655 83.0115 3.01139 83.0206 3.01583C83.037 3.02552 83.0527 3.03624 83.0677 3.04793L83.0907 3.06493C83.1065 3.07505 83.1218 3.08612 83.1378 3.09704C83.1457 3.1021 83.1529 3.10771 83.1609 3.11317C83.1767 3.12289 83.1923 3.13349 83.2081 3.14527L83.2323 3.16038C83.2493 3.16988 83.2655 3.17953 83.2825 3.18943L83.309 3.20369C83.3282 3.21194 83.3471 3.22067 83.3662 3.23019C83.5244 3.33289 83.6799 3.43884 83.8328 3.54804C83.8479 3.56077 83.8625 3.57484 83.8766 3.58858L83.8978 3.60754C83.9123 3.61876 83.9264 3.63045 83.9402 3.64055C83.947 3.64624 83.9538 3.65192 83.961 3.65713C83.9752 3.66716 83.9892 3.67806 84.003 3.69022C84.0101 3.69543 84.0166 3.70119 84.0236 3.70601C84.0371 3.71696 84.0491 3.72958 84.0595 3.74355L84.0686 3.76769C84.6172 4.21905 85.1683 4.66584 85.7122 5.12056C86.1115 5.45534 86.5021 5.7963 86.8966 6.13444C87.0617 6.19584 87.1552 6.3399 87.2709 6.45838C87.2951 6.47714 87.3173 6.49839 87.3371 6.52177C87.35 6.53574 87.3626 6.55019 87.3748 6.56471C87.3869 6.57847 87.3999 6.59137 87.4137 6.60331L87.4347 6.62068C87.4477 6.6327 87.46 6.64544 87.4715 6.65886C87.4826 6.67195 87.4934 6.6855 87.5048 6.69812C87.5158 6.71036 87.5276 6.72184 87.5401 6.73249C87.5467 6.73738 87.5528 6.74321 87.5595 6.7485C87.5723 6.75873 87.584 6.77028 87.5944 6.78294C87.6053 6.79494 87.6155 6.80754 87.625 6.82067C87.6392 6.83972 87.6517 6.85994 87.6678 6.87783C87.6776 6.88927 87.6867 6.90125 87.6952 6.9137C87.7041 6.92675 87.7108 6.94114 87.7152 6.95632L87.7196 6.97931L88.7118 8.22209C88.8432 8.28539 88.8682 8.43181 88.9529 8.53155C88.9748 8.56682 88.9945 8.60341 89.0119 8.6411L89.0494 8.68942C89.0666 8.71491 89.0854 8.73843 89.1045 8.76315C89.1229 8.79882 89.1432 8.83349 89.1653 8.86702C89.1778 8.88231 89.1884 8.89904 89.1969 8.91686C89.2126 8.9523 89.2312 8.98641 89.2524 9.01886C89.2628 9.0351 89.272 9.052 89.2801 9.06946C89.2925 9.09519 89.3068 9.11994 89.3229 9.14348C89.3342 9.15855 89.3446 9.17427 89.354 9.19055C89.3666 9.21628 89.3812 9.24098 89.3976 9.26441C89.4146 9.28694 89.4273 9.31235 89.4353 9.33941C89.4476 9.37335 89.464 9.40569 89.484 9.43572C89.4938 9.45118 89.5024 9.46741 89.5097 9.48424C89.5214 9.51973 89.5402 9.55248 89.5649 9.58053C89.5757 9.59699 89.5847 9.61457 89.5917 9.63295C89.6046 9.67252 89.6218 9.71058 89.6429 9.74646C89.659 9.77592 89.6726 9.80675 89.6834 9.83858C89.6931 9.90246 89.748 9.94295 89.7656 10.0029C90.0187 10.5331 90.161 11.1009 90.3347 11.6578C90.3455 11.7141 90.3562 11.7704 90.3668 11.8263C90.4172 12.0369 90.4262 12.2563 90.5088 12.4595C90.5537 12.6564 90.5871 12.8554 90.6245 13.0538C90.6105 13.1957 90.6586 13.3295 90.6794 13.4669C90.6992 13.5583 90.7082 13.6517 90.7062 13.7453C90.702 13.8339 90.7098 13.9226 90.7294 14.0091C90.7302 14.0455 90.7286 14.0819 90.7247 14.1181C90.7096 14.1892 90.7317 14.2581 90.7381 14.328C90.7337 14.3734 90.7344 14.4191 90.7403 14.4643C90.7327 14.5195 90.7352 14.5755 90.7476 14.6298C90.7535 14.662 90.7529 14.6951 90.7456 14.7271C90.7324 14.7786 90.7314 14.8326 90.7428 14.8846C90.7438 14.9156 90.7378 14.9463 90.7372 14.9777C90.7303 15.0179 90.7286 15.0588 90.7321 15.0994C90.7304 15.1294 90.725 15.1591 90.7246 15.1892C90.7183 15.2284 90.7169 15.2683 90.7205 15.3079C90.7184 15.3375 90.7134 15.3672 90.713 15.3973C90.7062 15.4372 90.7053 15.4779 90.7102 15.5182C90.7114 15.5336 90.7081 15.5491 90.7007 15.5628C90.6933 15.5764 90.6822 15.5877 90.6686 15.5951C90.6334 15.7011 90.6239 15.8141 90.6412 15.9245L89.909 16.064C89.8556 15.9776 89.905 15.9095 89.9418 15.8421C89.8323 15.8851 89.8783 15.9914 89.8599 16.0734L89.7131 16.1013C89.4957 16.0881 89.2919 16.168 89.0806 16.1956L88.183 16.3666C88.0154 16.3729 87.8482 16.3454 87.6914 16.2856C87.6703 16.2788 87.6496 16.2705 87.6297 16.2608C87.6202 16.2565 87.6106 16.2509 87.6011 16.2465C87.5819 16.2383 87.5626 16.2292 87.5437 16.2209C87.5249 16.2126 87.5044 16.2062 87.485 16.1988C87.4548 16.189 87.4249 16.1782 87.3945 16.1676C87.3523 16.1521 87.3119 16.1323 87.2738 16.1084C86.9835 15.9583 86.8595 15.7034 86.828 15.3918C86.836 15.3282 86.8504 15.2642 86.8599 15.202C86.865 15.1729 86.8718 15.1442 86.8804 15.116C86.8849 15.0981 86.8903 15.0804 86.8966 15.0632C86.9049 15.0377 86.9137 15.0127 86.9206 14.9867C86.9243 14.9695 86.9293 14.9526 86.9346 14.9355C86.9424 14.9094 86.951 14.8835 86.9608 14.8574C86.9729 14.821 86.9888 14.7859 87.0081 14.7527C87.0229 14.7252 87.0387 14.6984 87.0533 14.6713C87.0961 14.5702 87.1491 14.4737 87.2112 14.3832C87.2372 14.3499 87.2666 14.3193 87.2989 14.2922C87.3128 14.2772 87.3277 14.2628 87.3423 14.2486C87.3489 14.2403 87.3561 14.2332 87.3628 14.2249C87.375 14.2074 87.3879 14.191 87.4011 14.1741C87.4076 14.1654 87.4143 14.1572 87.4207 14.1482C87.442 14.1216 87.4656 14.0971 87.4912 14.0747C87.706 13.8695 87.9808 13.7855 88.2522 13.6947C88.3178 13.6752 88.3816 13.6502 88.4431 13.6202C88.4615 13.6072 88.4793 13.5952 88.4987 13.5829C88.7106 13.4509 88.8782 13.2714 89.0331 13.0792C89.0521 13.0534 89.0728 13.0289 89.095 13.0058C89.1092 12.9909 89.1244 12.9769 89.1403 12.9639C89.1544 12.9497 89.1699 12.9361 89.1846 12.9226C89.1917 12.9151 89.1991 12.9083 89.2058 12.9009C89.2518 12.8611 89.2926 12.8156 89.3273 12.7656C89.4161 12.6073 89.215 12.4883 89.2691 12.3354C89.2997 12.2289 89.41 12.1771 89.4454 12.0746C89.4622 11.995 89.4049 11.9418 89.3753 11.8788C89.2904 11.6896 89.1884 11.5134 89.1022 11.3277C89.0916 11.3109 89.0819 11.2926 89.0724 11.2747C89.0578 11.2494 89.0418 11.225 89.0244 11.2016L88.9852 11.1614C88.9631 11.1426 88.9421 11.1224 88.9224 11.1011C88.8839 11.0542 88.832 11.016 88.8207 10.9504C88.8234 10.94 88.8284 10.9303 88.8351 10.9219C88.8418 10.9136 88.8503 10.9067 88.8598 10.9018C89.0414 10.8907 89.0593 10.8404 88.9538 10.6806C88.8538 10.5299 88.7013 10.3647 88.8309 10.1493C88.9107 10.1378 88.9594 10.1782 88.9883 10.25C88.995 10.3112 89.0109 10.3689 89.0859 10.3748C89.2087 10.4488 89.2585 10.581 89.3392 10.6885C89.4651 10.8905 89.5986 11.0877 89.7113 11.298C89.7246 11.3571 89.7738 11.3982 89.7906 11.4558C89.8095 11.5295 89.8431 11.5978 89.8667 11.6661C89.8666 11.6484 89.8549 11.6383 89.8513 11.6238C89.8165 11.5384 89.7992 11.4476 89.7503 11.3694C89.7097 11.3093 89.702 11.2319 89.6481 11.1794C89.5022 10.9109 89.3988 10.6204 89.2291 10.3643C89.2112 10.3349 89.194 10.3049 89.1752 10.2756C89.1125 10.1725 89.0295 10.0831 88.9664 9.98012C88.9337 9.91397 88.8943 9.8514 88.8488 9.7934C88.8359 9.77652 88.8241 9.75888 88.8133 9.74059C88.7737 9.6656 88.7271 9.59455 88.674 9.52841L88.614 9.45234C88.5699 9.39072 88.5201 9.33336 88.4653 9.281C88.4101 9.22819 88.3671 9.16384 88.3396 9.09254C88.331 9.06242 88.327 9.0312 88.3277 8.9999C88.3207 8.96342 88.3349 8.89581 88.2653 8.9633C88.2541 8.97517 88.2406 8.98458 88.2255 8.99091C88.2105 8.99724 88.1943 9.00036 88.178 9.00007C88.0663 8.9778 88.0259 8.88441 87.9757 8.79949C87.9299 8.70991 87.9146 8.60775 87.9322 8.50867C87.974 8.30344 87.9342 8.08994 87.8213 7.91353C87.8022 7.87607 87.7868 7.83587 87.7674 7.79849C87.7573 7.78232 87.7484 7.76554 87.739 7.74883C87.7245 7.72613 87.7098 7.70304 87.6933 7.68112C87.6818 7.66771 87.6708 7.65336 87.66 7.63941C87.643 7.61836 87.6245 7.59853 87.6048 7.58008C87.5901 7.56817 87.576 7.55549 87.5627 7.54208C87.5293 7.50703 87.4985 7.46966 87.4704 7.43024C87.4521 7.40743 87.4341 7.38375 87.4162 7.36087C87.4031 7.3461 87.3916 7.33064 87.38 7.31517L87.3264 7.24897C87.3093 7.24113 87.2896 7.18325 87.2782 7.25445C87.3187 7.41108 87.2844 7.55813 87.2191 7.69998C87.1827 7.79485 87.1484 7.89054 87.109 7.98309C87.1 8.01068 87.0851 8.03594 87.0652 8.05705C87.0453 8.07817 87.021 8.09462 86.9941 8.10524C86.9776 8.10641 86.961 8.10426 86.9453 8.09892C86.9297 8.09358 86.9152 8.08515 86.9028 8.07414C86.8877 8.05896 86.8744 8.04204 86.8633 8.02374C86.8427 7.98658 86.8232 7.95126 86.8017 7.91551C86.7915 7.89796 86.7831 7.87949 86.7764 7.86034C86.7614 7.80262 86.7395 7.74692 86.7112 7.69446C86.7013 7.67716 86.6926 7.65917 86.6853 7.64063C86.6696 7.59419 86.6497 7.5493 86.6257 7.50654C86.6159 7.4898 86.6074 7.47234 86.6002 7.4543C86.5855 7.40883 86.5662 7.36501 86.5425 7.32355C86.5325 7.30716 86.5234 7.29024 86.5152 7.27288C86.4983 7.23789 86.4791 7.20415 86.4588 7.17064C86.4483 7.15317 86.4394 7.13478 86.4323 7.11569C86.418 7.07769 86.4013 7.04067 86.3821 7.00488C86.372 6.98812 86.3628 6.9708 86.3546 6.95302C86.3382 6.91867 86.3199 6.88526 86.2998 6.85293C86.2897 6.83713 86.2806 6.82077 86.2724 6.80391C86.2559 6.77091 86.2374 6.73868 86.2183 6.707C86.2049 6.6828 86.1939 6.65738 86.1854 6.6311C86.1734 6.5968 86.1579 6.56381 86.1391 6.53267C86.1294 6.51708 86.1206 6.50093 86.1127 6.4843C86.0963 6.45063 86.0765 6.41875 86.0536 6.38916C86.0408 6.37392 86.0288 6.35813 86.0171 6.34227C85.9972 6.31795 85.9787 6.29254 85.9616 6.26616C85.8703 6.10277 85.7751 5.94289 85.6758 5.7865C85.6553 5.743 85.63 5.70193 85.6004 5.66405C85.6026 5.69035 85.6226 5.70091 85.6325 5.72039C85.6598 5.7688 85.6898 5.81562 85.7224 5.86063C85.8286 6.05238 85.9327 6.24578 86.0301 6.44252C86.0524 6.49085 86.0679 6.54213 86.0926 6.58962C86.1028 6.60657 86.1116 6.62502 86.1204 6.64307C86.1377 6.67798 86.1543 6.71344 86.1751 6.74727C86.1858 6.76361 86.1953 6.78077 86.2033 6.79859C86.2204 6.84396 86.2403 6.88819 86.263 6.93102C86.2734 6.94796 86.2826 6.96555 86.2907 6.98368C86.3079 7.03029 86.3282 7.0757 86.3514 7.1196C86.3622 7.13682 86.3716 7.15479 86.3797 7.17337C86.4059 7.2385 86.4353 7.30229 86.4678 7.36448C86.4863 7.41091 86.5072 7.45629 86.5306 7.50042C86.5405 7.51759 86.5491 7.53545 86.5564 7.55385C86.5711 7.59998 86.5904 7.64448 86.6141 7.68666C86.6239 7.70313 86.6326 7.7203 86.6399 7.73803C86.6478 7.75584 86.6541 7.77394 86.6604 7.79205C86.674 7.82778 86.6909 7.86211 86.7111 7.89455C86.7211 7.9118 86.7296 7.92983 86.7366 7.94846C86.7553 7.99618 86.7778 8.04232 86.8039 8.08642C86.8184 8.11584 86.8279 8.14751 86.832 8.18008C86.8336 8.20252 86.8317 8.22508 86.8263 8.24691C86.7954 8.32838 86.7152 8.34654 86.6508 8.38511C86.6253 8.39967 86.6011 8.41625 86.5782 8.43468C86.5388 8.47341 86.5415 8.52385 86.5372 8.57439C86.5311 8.88093 86.4959 9.18618 86.432 9.48599C86.4233 9.5201 86.4119 9.55307 86.4007 9.58645C86.3927 9.60869 86.3831 9.63029 86.372 9.65108C86.3473 9.69095 86.3196 9.7288 86.2889 9.76427C86.2589 9.81097 86.2342 9.86088 86.2152 9.91308C86.1172 10.1154 86.055 10.1293 85.8425 10.0001C85.8139 9.9628 85.7982 9.91721 85.7977 9.87019C85.8006 9.80555 85.8083 9.7408 85.807 9.67573C85.8072 9.65555 85.8085 9.63435 85.8106 9.61506C85.8129 9.5904 85.8083 9.56558 85.7975 9.54331C85.7867 9.52104 85.77 9.50215 85.7492 9.48871C85.5721 9.27594 85.3261 9.42059 85.1186 9.36235C84.8362 9.27523 84.5933 9.10909 84.3357 8.97329C84.2852 8.96802 84.2341 8.97136 84.1846 8.98317C84.1661 8.98917 84.1459 8.99508 84.1291 9.00196C84.1029 9.01687 84.0797 9.03648 84.0606 9.05981C83.9665 9.18224 83.9091 9.32897 83.8951 9.48288C83.8927 9.50538 83.8887 9.52769 83.8832 9.54965C83.876 9.58266 83.8671 9.61558 83.8581 9.64811C83.7961 9.89534 83.6984 10.1424 83.8678 10.3858C83.8879 10.4075 83.9113 10.4257 83.9372 10.44C83.9549 10.4469 83.9725 10.455 83.99 10.4628C84.0074 10.4705 84.0249 10.4783 84.0424 10.4861C84.0516 10.4892 84.0605 10.4929 84.0696 10.4957C84.1189 10.5045 84.1691 10.5066 84.2189 10.5017C84.2412 10.501 84.2635 10.5017 84.2857 10.5038C84.82 10.5097 84.9977 10.7728 84.7958 11.2694C84.7678 11.338 84.7752 11.3769 84.8319 11.4141C85.1907 11.534 85.4994 11.342 85.827 11.2554C86.0918 11.1963 86.0942 11.3856 86.1141 11.5589C86.1105 11.6248 86.1028 11.6904 86.0908 11.7552C85.9632 12.1164 85.8209 12.4739 85.8207 12.8667C85.8234 12.9024 85.8241 12.9382 85.8227 12.974C85.8214 12.998 85.8173 13.0219 85.8104 13.0449C85.7971 13.0781 85.7779 13.1085 85.7536 13.1346C85.595 13.2881 85.4395 13.4471 85.2776 13.5984C85.2245 13.6439 85.1808 13.6994 85.1492 13.7619C85.1175 13.8243 85.0984 13.8924 85.0931 13.9622C85.0836 14.0137 85.075 14.0651 85.0676 14.1166C85.0622 14.1457 85.0553 14.1745 85.0466 14.2028C85.0421 14.2213 85.0362 14.2394 85.0291 14.2571C85.0218 14.2742 85.0133 14.2908 85.0037 14.3067C84.999 14.3142 84.9934 14.3218 84.9888 14.3297C84.979 14.3451 84.9683 14.3599 84.9564 14.3749L84.9406 14.3976C84.9312 14.4129 84.9206 14.4281 84.9086 14.4448L84.893 14.4683C84.8834 14.4845 84.8724 14.5002 84.861 14.5155C84.8551 14.5236 84.8492 14.5313 84.8438 14.5393C84.8255 14.5641 84.8058 14.5876 84.7855 14.61C84.6574 14.7235 84.7444 14.8808 84.7038 15.0122C84.5453 15.2116 84.4668 15.2065 84.2836 14.9854C84.2714 14.963 84.2614 14.9394 84.2538 14.9151C84.1132 14.3921 83.7991 13.9877 83.3935 13.6455C83.2377 13.5029 83.0711 13.3727 82.8952 13.2561C82.8439 13.2153 82.8015 13.1646 82.751 13.1233C82.6088 13.0078 82.6095 12.8935 82.7168 12.744C82.9509 12.4184 82.9559 12.2186 82.7692 11.9427C82.7432 11.9222 82.7175 11.9016 82.6909 11.8825C82.6282 11.8403 82.5583 11.8099 82.4847 11.7927C82.4413 11.7801 82.398 11.7682 82.3565 11.7506C82.3003 11.7247 82.2541 11.6908 82.25 11.6218C82.2525 11.5978 82.2573 11.5742 82.2644 11.5512L82.2751 11.5171C82.3245 11.3758 82.291 11.2454 82.225 11.1183C82.1725 11.0174 82.1117 10.9197 82.1087 10.8007C82.1163 10.692 82.1159 10.5844 82.0548 10.4876C82.0137 10.4064 81.9927 10.3166 81.9934 10.2257C82.0155 9.92194 81.8748 9.6891 81.6861 9.47401C81.6051 9.38261 81.4997 9.32217 81.4016 9.25294C81.384 9.24233 81.367 9.23077 81.3501 9.21921L81.3242 9.204C81.3059 9.196 81.2878 9.18712 81.269 9.17918C81.2503 9.17125 81.231 9.16466 81.2122 9.15633C81.1832 9.14418 81.1545 9.13116 81.1231 9.11947C81.0111 9.07911 80.8955 9.04913 80.778 9.02993C80.757 9.02748 80.7361 9.02377 80.7156 9.01881C80.6867 9.00808 80.6566 9.00071 80.6261 8.99683C80.5954 8.99907 80.5646 8.99692 80.5346 8.99043C80.4947 8.97626 80.4515 8.9746 80.4107 8.98569C80.3153 9.00387 80.2086 8.97982 80.1322 9.0634C80.0832 9.12335 80.0423 9.18958 80.0106 9.26036C79.9474 9.57438 79.9757 9.91863 79.7058 10.1619C79.6732 10.1907 79.6283 10.1985 79.5947 10.2242C79.5802 10.2383 79.5643 10.251 79.5473 10.262C79.5222 10.2773 79.498 10.2942 79.4749 10.3123C79.4498 10.3272 79.4229 10.3385 79.3948 10.3461C79.3594 10.3598 79.3256 10.3774 79.294 10.3986C79.2774 10.4089 79.2599 10.4176 79.2416 10.4246C79.2048 10.4403 79.1703 10.4607 79.1387 10.4853C79.1003 10.5015 79.0603 10.5139 79.0195 10.5224C78.9784 10.5372 78.9459 10.5668 78.9051 10.5852C78.7623 10.6235 78.62 10.6708 78.4712 10.6087C78.4409 10.596 78.4815 10.6068 78.4487 10.5982C78.4549 10.6201 78.4778 10.6153 78.4924 10.6256C78.541 10.6484 78.5956 10.6549 78.6481 10.6441C78.6909 10.6359 78.734 10.6277 78.7767 10.6196C78.8515 10.6053 78.9292 10.5995 78.9916 10.5482C79.019 10.5325 79.0486 10.5208 79.0793 10.5134C79.1186 10.5076 79.1558 10.4919 79.1875 10.4678C79.203 10.4564 79.2198 10.4468 79.2373 10.4389C79.2548 10.4319 79.2728 10.426 79.291 10.4213C79.3256 10.409 79.3585 10.3923 79.389 10.3718C79.4044 10.3616 79.4207 10.3529 79.4378 10.3457C79.464 10.3374 79.4883 10.3241 79.5095 10.3066C79.5236 10.2946 79.5385 10.2835 79.554 10.2734C79.5785 10.2597 79.5989 10.2398 79.6217 10.224C79.6376 10.2129 79.6547 10.2036 79.6726 10.1962C79.708 10.1769 79.738 10.1488 79.7596 10.1147C79.9895 9.87285 79.9525 9.54957 80.02 9.25775C80.05 9.17644 80.1004 9.1042 80.1662 9.04789C80.2569 8.99239 80.3626 9.00226 80.4605 8.98442C80.5106 8.98719 80.5578 9.01067 80.6088 9.00957C80.6335 9.01513 80.6554 9.02911 80.6709 9.0491C80.6731 9.07375 80.6666 9.09838 80.6526 9.11874C80.642 9.13126 80.6295 9.14209 80.6156 9.15084C80.482 9.22437 80.2594 9.2187 80.2418 9.39749C80.2215 9.62035 80.1666 9.86377 80.3008 10.0773C80.3805 10.2047 80.3882 10.3207 80.3003 10.4472C80.2554 10.5124 80.2422 10.6008 80.3039 10.6552C80.5123 10.8386 80.6221 11.1028 80.8787 11.2569C81.404 11.573 81.3896 11.8502 80.8701 12.176C80.7517 12.2503 80.6949 12.3737 80.6183 12.4799C80.5418 12.5861 80.4711 12.6628 80.3318 12.6056C80.31 12.5933 80.2851 12.5878 80.2602 12.5899C80.2353 12.5919 80.2116 12.6014 80.1921 12.617C80.0188 12.7667 79.9089 12.6981 79.8342 12.5126C79.7766 12.3695 79.6393 12.3139 79.5276 12.2313C79.4223 12.1569 79.3467 12.0477 79.3142 11.9229C79.2816 11.7981 79.2942 11.6658 79.3497 11.5494C79.3702 11.5044 79.4088 11.4618 79.4056 11.4126C79.3908 11.21 79.4805 11.0804 79.6711 11.0174C79.4539 10.7251 79.4161 10.7204 79.0697 10.8033C78.877 10.8486 78.6754 10.8455 78.476 10.8342C78.3145 10.8239 78.1619 10.8411 78.0539 10.9865C77.9658 11.1036 77.8575 11.0905 77.7488 11.0106C77.6954 10.9714 77.6391 10.9362 77.5824 10.9013C77.3649 10.7673 77.3432 10.776 77.2917 11.0352C77.2741 11.1236 77.2444 11.2176 77.1491 11.2123C76.7997 11.193 76.5132 11.4157 76.1724 11.444C75.9304 11.4651 75.9058 11.6181 76.0711 11.8056C76.1677 11.9145 76.2997 12.0085 76.2693 12.1852C76.0677 12.3239 75.9689 12.1324 75.8355 12.0501C75.8184 12.0337 75.8026 12.0153 75.7875 11.9981C75.7719 11.9808 75.7575 11.9625 75.7442 11.9434C75.6787 11.8532 75.6352 11.7477 75.5534 11.6692C75.5378 11.6562 75.5233 11.6425 75.5084 11.6293C75.4936 11.6161 75.4776 11.6072 75.4613 11.5972C75.4525 11.5939 75.4442 11.5893 75.4358 11.586C75.3991 11.5783 75.3609 11.5833 75.3273 11.6001C75.2486 11.6369 75.1707 11.6756 75.0797 11.6588C74.8512 11.5659 74.6057 11.5256 74.3797 11.4286C74.3699 11.4247 74.36 11.42 74.3499 11.4166C74.3398 11.4132 74.3309 11.4074 74.3212 11.4036C74.3025 11.3945 74.2843 11.3842 74.2669 11.3728L74.2418 11.3571C74.2255 11.347 74.2098 11.3356 74.1946 11.325C74.1723 11.3091 74.1503 11.2923 74.1279 11.276C74.1134 11.2669 74.0992 11.2565 74.0853 11.246L74.0644 11.231C74.0503 11.2218 74.0365 11.2117 74.0231 11.2015L74.0026 11.1869C73.9887 11.1781 73.9753 11.1683 73.9624 11.1584C73.9624 11.1584 73.9424 11.1442 73.9421 11.1446C73.9278 11.1363 73.9141 11.127 73.9002 11.1185C73.9002 11.1185 73.8783 11.1067 73.8775 11.1072C73.8529 11.0984 73.8281 11.0912 73.8025 11.0837C73.7844 11.0781 73.7666 11.0714 73.7491 11.0639C73.7205 11.0527 73.6913 11.043 73.6616 11.035C73.3204 10.9664 72.9808 10.9058 72.6294 10.9194C72.5496 10.9075 72.4683 10.9176 72.3883 10.909C72.3661 10.9037 72.3455 10.8928 72.3286 10.8773C72.2673 10.6938 72.4289 10.601 72.4939 10.4686C72.5046 10.4514 72.517 10.435 72.5295 10.4207C72.5419 10.4065 72.5527 10.3896 72.5643 10.373C72.5694 10.3655 72.5758 10.3581 72.5808 10.3502L72.6105 10.3034L72.623 10.2788C72.6292 10.2616 72.6367 10.245 72.6432 10.2277C72.656 10.1921 72.6721 10.1578 72.6914 10.1253C72.7115 10.0911 72.7327 10.0579 72.7541 10.0242C72.7646 10.0058 72.776 9.98838 72.7875 9.971C72.7989 9.95362 72.8109 9.9345 72.8234 9.91649C73.0145 9.62298 73.2206 9.33961 73.4409 9.06752C73.5637 8.89581 73.6775 8.71841 73.7987 8.5474C73.8098 8.53076 73.8218 8.51476 73.8347 8.49946C73.8453 8.48389 73.8567 8.46857 73.8667 8.45228C73.871 8.44448 73.8765 8.43686 73.8811 8.42859C73.8879 8.41251 73.8958 8.3958 73.9021 8.3794C73.9084 8.36299 73.914 8.34548 73.9208 8.329C73.9283 8.31323 73.9368 8.29791 73.946 8.28309C73.9509 8.27602 73.956 8.26847 73.9603 8.26107C73.9646 8.25367 73.9794 8.23236 73.9895 8.21852L74.0039 8.19729C74.0126 8.18249 74.0218 8.16841 74.0305 8.15401L74.0422 8.13124C74.0487 8.11563 74.056 8.10027 74.0635 8.08609C74.0747 8.06299 74.0895 8.04185 74.1074 8.02351C74.1185 8.01071 74.1301 7.99863 74.1414 7.98663C74.1467 7.98027 74.1526 7.97423 74.1578 7.96747C74.1631 7.96071 74.1778 7.94106 74.188 7.92763C74.1924 7.92062 74.1977 7.91426 74.2021 7.90726C74.2109 7.89286 74.2206 7.8791 74.2303 7.86574L74.2448 7.8449C74.255 7.83109 74.2662 7.81809 74.2784 7.80604C74.2907 7.79436 74.3039 7.78361 74.3178 7.77388C74.3309 7.76276 74.3441 7.75284 74.3578 7.74244C74.3703 7.73116 74.3835 7.72055 74.3972 7.71068L74.4353 7.67795C74.4467 7.66469 74.4583 7.65261 74.469 7.63988C74.4802 7.62652 74.4923 7.61404 74.5054 7.60255C74.5183 7.59065 74.5324 7.58057 74.546 7.57017C74.5596 7.55977 74.5734 7.54851 74.587 7.53811C74.6006 7.52771 74.615 7.51716 74.6292 7.50748C74.6507 7.49106 74.6713 7.4744 74.6913 7.45456C74.7048 7.44131 74.7193 7.4291 74.7332 7.41617C74.7471 7.40325 74.761 7.38581 74.7748 7.37003L74.7973 7.34563C74.8226 7.31975 74.8513 7.29742 74.8826 7.27924C75.3598 6.98536 75.8679 6.79364 76.4279 6.74939C76.9083 6.70921 77.3871 6.65414 77.87 6.6546C78.0423 6.65504 78.2133 6.66766 78.3849 6.67071C78.4475 6.67439 78.5111 6.68773 78.5729 6.68705C78.5965 6.68728 78.6199 6.68898 78.6432 6.69215C78.6999 6.70001 78.7573 6.70148 78.8143 6.69654C78.8958 6.69414 78.9754 6.70693 79.0557 6.7023C79.0796 6.70178 79.1034 6.70272 79.1272 6.70512C79.2003 6.71665 79.2724 6.69881 79.3451 6.69523C79.6842 6.70746 79.9994 6.61166 80.3055 6.47937C80.3576 6.45755 80.4121 6.44223 80.4629 6.41818C80.4803 6.40829 80.5003 6.39953 80.5172 6.39138C80.5522 6.37606 80.5863 6.35886 80.6194 6.33987C80.6337 6.32893 80.6494 6.31855 80.6642 6.30832C80.6865 6.29175 80.7088 6.27558 80.7312 6.25941C80.7457 6.2472 80.7612 6.23603 80.7767 6.22485C80.7998 6.20647 80.8225 6.18737 80.845 6.16788C80.8606 6.15299 80.8773 6.13953 80.8936 6.12615C81.2721 5.78535 81.5526 5.38062 81.6443 4.8652C81.6513 4.82276 81.6592 4.78017 81.6637 4.73455C81.6653 4.71239 81.6681 4.69033 81.672 4.66846C81.6783 4.6232 81.6821 4.57763 81.6833 4.53195C81.6832 4.50758 81.6849 4.48324 81.6883 4.4591C81.6806 3.94647 81.6001 3.4375 81.4491 2.94753C81.3982 2.77933 81.3651 2.58431 81.1541 2.52097" fill="#363636"/>
<path d="M57.2334 9.54604C57.3521 9.3091 57.4589 9.06525 57.5899 8.83668C57.819 8.44108 58.0736 8.06076 58.3521 7.69815C58.9458 6.92162 59.5823 6.17823 60.2149 5.43861C60.8334 4.7245 61.5313 4.08313 62.2949 3.52692C63.0965 2.93173 63.9855 2.46456 64.9304 2.1421C65.6427 1.90428 66.3749 1.73033 67.1181 1.6223C67.7624 1.52935 68.415 1.50655 69.0642 1.55432C69.2679 1.58666 69.4743 1.59913 69.6805 1.59155L69.7992 2.22739C69.7895 2.23648 69.7781 2.24356 69.7657 2.24822C69.7533 2.25288 69.74 2.25502 69.7268 2.25452C69.7135 2.25403 69.7005 2.2509 69.6884 2.24532C69.6764 2.23975 69.6655 2.23184 69.6566 2.22205C69.6153 2.18863 69.5803 2.14795 69.5417 2.11251C69.5355 2.10489 69.527 2.0995 69.5175 2.09715C69.508 2.0948 69.498 2.09563 69.489 2.0995C69.4847 2.10197 69.4811 2.10528 69.4781 2.10922C69.4752 2.11316 69.4732 2.11766 69.4721 2.12243C69.471 2.1272 69.4708 2.13215 69.4717 2.13697C69.4726 2.14178 69.4744 2.14638 69.4772 2.15045C69.5143 2.24237 69.5724 2.32435 69.6468 2.3899C69.6796 2.41881 69.7091 2.40567 69.7351 2.37341L69.8113 2.29215L69.9515 3.0428C69.8895 3.04524 69.9142 3.08784 69.9183 3.11755C69.9414 3.2823 69.9599 3.44641 69.9919 3.60951C70.0875 4.0806 69.9024 4.47616 69.6696 4.86084C69.6135 4.95204 69.508 4.95804 69.4226 4.99836C69.3372 5.03868 69.273 5.0126 69.2102 5.07611C69.2056 5.07953 69.2003 5.08184 69.1947 5.08289C69.1891 5.08394 69.1833 5.08369 69.1778 5.08216C69.01 4.99926 68.8201 5.03473 68.6521 4.95035C68.3598 4.8125 68.1037 4.60843 67.9041 4.35436C67.8087 4.22331 67.741 4.07429 67.705 3.9163C67.6301 3.62725 67.4662 3.36905 67.2366 3.17821C67.0648 3.04166 66.9039 2.89194 66.7554 2.73039C66.67 2.6321 66.6332 2.63897 66.545 2.7377C66.4568 2.83642 66.3371 2.84811 66.2493 2.71219C66.2196 2.67759 66.1802 2.65282 66.1361 2.64119C66.092 2.62956 66.0455 2.63162 66.0026 2.64708L65.4943 2.89433C65.3198 2.9855 65.1661 3.11171 65.0426 3.26506C65.0236 3.28537 65.0083 3.30955 65.0273 3.33799C65.0463 3.36642 65.067 3.35494 65.0906 3.35054L65.1244 3.34422C65.2245 3.32552 65.3381 3.28145 65.4281 3.33928C65.5665 3.42401 65.6809 3.54262 65.7606 3.68388C65.7879 3.7321 65.7752 3.76189 65.7203 3.77822C65.4248 3.87607 65.1517 4.03674 64.8489 4.11159C64.8018 4.12038 64.7723 4.12588 64.7403 4.08465C64.5522 3.83645 64.2765 3.7463 63.9865 3.68622C63.9499 3.67782 63.9102 3.67761 63.8727 3.67244C63.8595 3.66863 63.8468 3.66334 63.8348 3.65668C64.4661 3.0818 65.1321 2.56139 65.962 2.23425C65.7935 2.22706 65.6261 2.2641 65.4764 2.34171C65.1609 2.46433 64.8552 2.61105 64.5622 2.78054C64.1555 3.04994 63.7281 3.2897 63.3766 3.6341C63.3297 3.68055 63.2882 3.73224 63.2531 3.78817C63.2048 3.87694 63.128 3.94685 63.0351 3.98659C62.9422 4.02633 62.8386 4.03358 62.7411 4.00718C62.4609 3.93459 62.252 4.08023 62.0494 4.21861C61.852 4.36524 61.6621 4.5217 61.4805 4.68739C61.4582 4.70678 61.4244 4.72985 61.4428 4.76297C61.4612 4.7961 61.4982 4.77396 61.5238 4.76459C61.5993 4.73511 61.6802 4.7221 61.7612 4.72642C61.8421 4.73075 61.9212 4.75231 61.9931 4.78967C62.1224 4.85387 62.2689 4.87982 62.4047 4.9626C62.2476 5.06039 62.0813 5.14247 61.9082 5.20765C61.2783 5.48543 60.6743 5.81844 60.1032 6.20279C60.0493 6.24028 59.9796 6.267 59.9556 6.37505C60.0949 6.30488 60.2122 6.24794 60.3272 6.18685C61.0178 5.82328 61.722 5.48867 62.4397 5.18301C62.5298 5.14334 62.5796 5.15689 62.5942 5.25164C62.6182 5.42081 62.7276 5.45216 62.8774 5.45465C63.3342 5.46913 63.7852 5.56159 64.211 5.72804C64.3644 5.78315 64.381 5.82271 64.2626 5.93926C64.2071 5.98648 64.1415 6.02025 64.0708 6.03794C64.0001 6.05563 63.9263 6.05676 63.8551 6.04125C63.8038 6.03066 63.7506 6.03373 63.7008 6.05016C63.651 6.06658 63.6064 6.09579 63.5715 6.13485C63.5365 6.17391 63.5124 6.22147 63.5016 6.27276C63.4908 6.32405 63.4937 6.37728 63.5099 6.42713C63.567 6.73328 63.4123 6.98151 63.2485 7.21319C63.0397 7.50654 63.105 7.7335 63.4555 7.83253C63.6923 7.90959 63.9352 7.96613 64.1817 8.00155C64.5081 8.03655 64.6673 7.86972 64.6816 7.53042C64.6675 7.40517 64.6823 7.27834 64.7251 7.15978C64.7528 7.10889 64.7919 7.06507 64.8393 7.03172C64.8867 6.99836 64.9411 6.97637 64.9984 6.96745C65.0556 6.95852 65.1141 6.9629 65.1694 6.98025C65.2247 6.9976 65.2753 7.02744 65.3172 7.06748C65.4189 7.17185 65.4082 7.1632 65.4997 7.03339C65.539 6.97664 65.5655 6.91207 65.5775 6.8441C65.5896 6.77613 65.5867 6.70637 65.5693 6.63958C65.5267 6.40833 65.4619 6.18171 65.3759 5.96285C65.3464 5.87849 65.3652 5.8567 65.449 5.84866C65.6786 5.80868 65.9149 5.85455 66.1128 5.97754C66.1669 6.01291 66.2284 6.0353 66.2926 6.04297C66.5037 6.08449 66.7177 6.10971 66.9327 6.11838C66.9538 6.11979 66.9743 6.12563 66.993 6.13554C67.0116 6.14544 67.028 6.15918 67.0409 6.17585C67.1835 6.32744 67.3299 6.47526 67.4736 6.6251C67.5267 6.68068 67.5906 6.72473 67.6614 6.75448C67.7322 6.78424 67.8084 6.79907 67.8852 6.79804C67.978 6.797 68.0696 6.8179 68.1527 6.85902C68.2359 6.90014 68.3081 6.96033 68.3635 7.03467C68.394 7.08169 68.4388 7.11764 68.4913 7.13719C68.5438 7.15675 68.6011 7.15886 68.6549 7.14323L68.6785 7.13883C68.7602 7.13576 68.8566 7.10557 68.8835 7.22543C68.8917 7.27537 68.8801 7.32652 68.8511 7.36803C68.8222 7.40954 68.7782 7.43816 68.7286 7.44782C68.1004 7.58341 67.6747 7.995 67.3 8.47624C67.1881 8.63664 67.0635 8.78776 66.9274 8.92815C66.8822 8.97162 66.8517 8.97123 66.8043 8.92981C66.6672 8.79643 66.491 8.71034 66.3015 8.68406C66.1955 8.66708 66.0869 8.68866 65.9954 8.74486C65.9039 8.80107 65.8355 8.8882 65.8027 8.99046C65.7724 9.06466 65.7488 9.14218 65.722 9.21878C65.6952 9.29538 65.6686 9.30796 65.5926 9.27645C65.5174 9.24019 65.4333 9.2264 65.3504 9.23675C65.2675 9.2471 65.1893 9.28115 65.1253 9.33481C65.0812 9.36965 65.0302 9.39459 64.9756 9.40793C64.9211 9.42127 64.8643 9.4227 64.8092 9.41212C64.7753 9.40414 64.7401 9.40331 64.7059 9.40971C64.6717 9.4161 64.6392 9.42956 64.6105 9.44923C64.534 9.50275 64.4413 9.52813 64.3482 9.52107C64.166 9.51158 63.9849 9.55363 63.8255 9.64239C63.6662 9.73115 63.5351 9.86304 63.4473 10.0229C63.2496 10.3338 63.1423 10.6934 63.1371 11.0618C63.1289 11.161 63.1596 11.2596 63.2225 11.3367C63.2855 11.4139 63.376 11.4636 63.4748 11.4755C63.5783 11.4976 63.6831 11.5137 63.7885 11.5235C63.8918 11.5268 63.9928 11.5556 64.0822 11.6075C64.1717 11.6594 64.2468 11.7327 64.3009 11.8208C64.4494 12.0633 64.5675 12.3231 64.6526 12.5944C64.6738 12.6566 64.6787 12.7232 64.6668 12.7879C64.6549 12.8525 64.6265 12.913 64.5844 12.9635C64.5612 12.9938 64.5134 13.0317 64.569 13.0685C64.6246 13.1053 64.6472 13.063 64.6758 13.0287C64.7218 12.9814 64.7558 12.9237 64.7747 12.8605C64.7937 12.7973 64.7971 12.7305 64.7847 12.6657C64.7019 12.2928 64.5367 11.9432 64.3012 11.6425C64.2445 11.5768 64.1751 11.5234 64.097 11.4856C64.0189 11.4478 63.934 11.4264 63.8473 11.4227C63.7432 11.4116 63.6408 11.4018 63.5362 11.3879C63.4952 11.3883 63.4546 11.3797 63.4172 11.3627C63.3799 11.3457 63.3468 11.3207 63.3202 11.2895C63.2935 11.2583 63.2741 11.2216 63.2633 11.1821C63.2524 11.1425 63.2503 11.1011 63.2572 11.0607C63.2583 10.6887 63.3741 10.3261 63.5888 10.0224C63.6657 9.91112 63.7679 9.81969 63.887 9.75561C64.0061 9.69153 64.1387 9.65662 64.274 9.65374C64.3198 9.65917 64.3662 9.65669 64.4112 9.64639C64.6785 9.52792 64.9974 9.59631 65.2451 9.40535C65.2932 9.37252 65.3498 9.35444 65.408 9.3533C65.4662 9.35217 65.5235 9.36803 65.5729 9.39895C65.6019 9.41019 65.6268 9.43021 65.6439 9.45622C65.6611 9.48223 65.6697 9.51294 65.6685 9.54408C65.6702 9.58645 65.6808 9.62799 65.6997 9.66595C65.7186 9.70391 65.7454 9.73741 65.7782 9.76426C65.8639 9.85639 65.9468 9.85157 66.0495 9.76537C66.1659 9.64551 66.3203 9.56982 66.4863 9.55127C66.5396 9.54563 66.5909 9.52815 66.6365 9.50013C66.6821 9.47211 66.7209 9.43424 66.75 9.3893C67.0924 8.97959 67.3822 8.52487 67.7643 8.14885C67.9442 7.9686 68.1506 7.81702 68.3765 7.69941C68.483 7.64537 68.5996 7.61425 68.7189 7.60804C68.8694 7.59821 68.9239 7.65353 68.9079 7.80427C68.91 7.90121 68.8806 7.99623 68.8243 8.07512C68.7679 8.15401 68.6875 8.21254 68.5951 8.24197C68.2039 8.38205 67.9289 8.67104 67.6665 8.97898C67.5834 9.07712 67.5357 9.20028 67.5308 9.32878C67.5005 9.71622 67.4253 10.0988 67.3066 10.4689C67.2042 10.8224 67.1623 11.1908 67.1826 11.5583C67.1894 11.7131 67.1619 11.8675 67.1019 12.0104C67.042 12.1533 66.9511 12.2811 66.8358 12.3847C66.729 12.4899 66.6208 12.5954 66.5195 12.7057C66.3636 12.8682 66.2583 13.0724 66.2163 13.2936C66.1743 13.5148 66.1975 13.7434 66.2831 13.9517C66.3901 14.1897 66.4029 14.4595 66.319 14.7066C66.2383 14.898 66.1388 15.0809 66.0218 15.2525C65.9407 15.3728 65.801 15.4156 65.6956 15.5039C65.6489 15.5387 65.6051 15.5775 65.5649 15.6197C65.5374 15.6478 65.5204 15.6847 65.5169 15.7239C65.5134 15.7631 65.5236 15.8024 65.5457 15.835C65.5737 15.8759 65.591 15.9231 65.5962 15.9724C65.6014 16.0216 65.5944 16.0714 65.5756 16.1173C65.4962 16.4064 65.376 16.6828 65.2186 16.9379C64.9457 17.3362 64.8878 17.8009 64.9017 18.2751C64.9049 18.3735 64.911 18.4714 64.9156 18.5939C64.7436 18.4889 64.5945 18.3919 64.4394 18.3036C64.1169 18.1309 63.8117 17.9278 63.5279 17.697C63.1592 17.3956 62.7614 17.1316 62.3404 16.9089C62.1447 16.7716 61.9743 16.6014 61.8367 16.4059C61.4619 15.9356 61.2368 15.3638 61.1904 14.7642C61.1012 14.034 61.0824 13.2969 61.1342 12.563C61.1763 12.1865 61.1496 11.8054 61.0552 11.4384C60.8558 10.7948 60.4832 10.2841 59.8642 9.99602C59.453 9.80708 58.9958 9.74166 58.5481 9.80773C58.1342 9.85015 57.7277 9.94707 57.3392 10.096C57.2788 10.1207 57.2224 10.1543 57.172 10.1957C57.1189 10.2376 57.0891 10.2904 57.1303 10.3558C57.1714 10.4213 57.1378 10.4534 57.122 10.4991C56.9945 10.8735 56.8862 11.2542 56.7973 11.6396M66.5019 2.2705C66.4416 2.28178 66.4131 2.30079 66.4259 2.36087C66.4386 2.42094 66.458 2.44321 66.5105 2.43037C66.5629 2.41753 66.6305 2.38814 66.6243 2.32228C66.6181 2.25642 66.5393 2.28332 66.5019 2.2705ZM63.3688 3.71476C63.2908 3.72933 63.2304 3.78935 63.2401 3.84086C63.2497 3.89238 63.2856 3.88872 63.3186 3.87799C63.3817 3.85706 63.4461 3.82675 63.4474 3.75188C63.4486 3.67701 63.3974 3.71248 63.3659 3.71531L63.3688 3.71476Z" fill="#363636"/>
<circle cx="18.6368" cy="18.6368" r="18.6368" transform="matrix(-1 0 0 1 60.8247 0)" fill="#363636"/>
<path d="M24.4592 19.3112C24.348 18.8887 24.231 18.4685 24.1592 18.0369C24.0271 17.2421 23.9415 16.4458 24.0509 15.6374C24.1262 15.2092 24.2977 14.8034 24.5525 14.4506C24.696 14.2415 24.8523 14.0415 25.0207 13.8518C25.1497 13.6853 25.2904 13.528 25.4417 13.3813C25.4674 13.3554 25.501 13.3388 25.5372 13.3344C25.5734 13.33 25.6101 13.338 25.6411 13.357C25.8358 13.4493 25.9369 13.4209 26.0846 13.2594C26.1781 13.1435 26.2599 13.0185 26.3287 12.8864C26.401 12.769 26.4803 12.6724 26.6397 12.6823C26.7008 12.6776 26.7608 12.6631 26.8173 12.6392C26.858 12.6231 26.9055 12.5717 26.9432 12.6271C26.9808 12.6826 26.9493 12.7381 26.9133 12.7824C26.8351 12.8591 26.7482 12.9263 26.6543 12.9828C26.5611 13.0346 26.4899 13.1184 26.4538 13.2186C26.3773 13.5628 26.2042 13.8783 25.9546 14.1281C25.8199 14.2403 25.7123 14.3814 25.64 14.5409C25.5242 14.8683 25.6297 15.1445 25.8717 15.3692C26.1136 15.5939 26.3454 15.8096 26.5643 16.0487C26.6846 16.1946 26.832 16.3158 26.9985 16.4057C27.2565 16.5136 27.5296 16.5812 27.8083 16.6061C28.0495 16.6568 28.2992 16.6523 28.5386 16.5929C29.0495 16.4282 29.2749 15.9883 29.5044 15.5585C29.5836 15.3936 29.6766 15.2355 29.7822 15.086C30.0323 14.7876 30.3024 14.5064 30.5905 14.2443C30.7039 14.1316 30.8009 13.994 30.9722 13.9548C30.8565 13.8966 30.7307 13.8611 30.6015 13.8502C29.1576 13.5037 28.1226 12.6262 27.3469 11.401C27.3052 11.3354 27.212 11.242 27.2973 11.1835C27.3825 11.1249 27.4513 11.2423 27.4986 11.3057C27.687 11.5792 27.9069 11.8297 28.1538 12.0522C28.7404 12.5795 29.3996 12.9737 30.1857 13.1275C31.154 13.3158 32.1006 13.1922 33.0284 12.9026C33.9947 12.6103 34.8988 12.1423 35.6953 11.5223C35.7458 11.4814 35.8078 11.4269 35.869 11.4925C35.9303 11.5582 35.8883 11.6269 35.8338 11.6772C35.7265 11.7811 35.6135 11.879 35.4953 11.9704C34.798 12.4636 34.0265 12.8428 33.21 13.0939C32.548 13.3183 31.8541 13.4345 31.1553 13.4378C30.4278 13.4503 29.7091 13.2798 29.0656 12.9419L29.067 12.9948C29.1185 13.0292 29.1664 13.0675 29.2199 13.0971C30.3102 13.7158 31.5915 13.911 32.8185 13.6453C33.7556 13.4615 34.6132 13.0642 35.4222 12.5637C35.9866 12.2175 36.5444 11.8582 37.0819 11.4771C37.6816 11.0693 38.1834 10.5339 38.551 9.90945C39.2448 8.6934 39.525 7.40282 39.1368 6.02135C39.017 5.59052 38.867 5.16907 38.5712 4.81188C38.4823 4.70634 38.3901 4.60215 38.2924 4.50402C38.2788 4.49453 38.2673 4.48234 38.2586 4.46822C38.2499 4.4541 38.2442 4.43834 38.2418 4.42192C38.2395 4.4055 38.2406 4.38877 38.2449 4.37276C38.2493 4.35675 38.257 4.34181 38.2674 4.32886C38.32 4.26371 38.3648 4.33066 38.4116 4.36295C38.4869 4.44198 38.5749 4.50796 38.6719 4.55823L38.7542 4.55167L38.7915 4.5369C38.8458 4.49302 38.9079 4.45958 38.9745 4.43829C39.0245 4.41439 39.0643 4.37353 39.0869 4.32302C39.1095 4.27252 39.1134 4.21566 39.0978 4.16264C39.0748 4.073 39.0312 3.98997 38.9704 3.92017C38.9096 3.85037 38.8334 3.7957 38.7476 3.76053C38.5214 3.66796 38.304 3.55523 38.0981 3.42369C37.9258 3.31864 37.8794 3.23796 37.912 3.03344C37.922 2.96118 37.9374 2.88975 37.958 2.81973C38.0241 2.63407 38.0615 2.43949 38.0689 2.24268C38.0766 2.08572 38.0926 1.92926 38.117 1.77397C38.1289 1.66237 38.1853 1.61658 38.295 1.64609C38.349 1.66494 38.4083 1.66241 38.4607 1.63904L38.1504 0.856212C37.9015 0.861044 37.6512 0.862498 37.4013 0.871603C36.5978 0.900348 35.7996 1.01655 35.021 1.21816C33.3257 1.65331 31.7342 2.42283 30.3406 3.48133C29.665 3.98517 29.0341 4.54615 28.4548 5.15806C27.839 5.82086 27.2782 6.53264 26.7782 7.28631C26.0334 8.41504 25.3804 9.60136 24.8253 10.8339C24.4768 11.617 24.1927 12.427 23.9758 13.2559C23.7167 14.219 23.583 15.2112 23.578 16.208C23.571 17.125 23.6888 18.0385 23.928 18.9235C24.0364 19.3289 24.1577 19.7305 24.2767 20.133C24.2978 20.1502 24.3136 20.173 24.3224 20.1987C24.3312 20.2245 24.3327 20.2522 24.3267 20.2787M26.3623 9.92227L26.3312 9.91635C26.3063 9.93032 26.2768 9.93387 26.2493 9.92621C26.2218 9.91855 26.1984 9.90032 26.1844 9.8755C26.1159 9.78352 26.0729 9.67514 26.0598 9.56124C26.0545 9.52815 26.054 9.48403 26.1003 9.47874C26.1465 9.47344 26.1411 9.51597 26.1507 9.54345C26.1622 9.59686 26.1856 9.64697 26.2192 9.69007C26.2528 9.73317 26.2957 9.76813 26.3448 9.79237L26.67 9.66347C26.6747 9.66025 26.6801 9.65811 26.6858 9.65721C26.6981 9.63677 26.7169 9.62093 26.7391 9.61212C26.7613 9.6033 26.7858 9.602 26.8088 9.60842L26.8871 9.59172L26.9171 9.59157L26.946 9.59186C26.9534 9.58512 26.9631 9.58133 26.9731 9.58119C26.9832 9.58104 26.9929 9.58456 27.0006 9.59108C27.0447 9.59704 27.0882 9.59804 27.1371 9.60603C27.2171 9.62646 27.3026 9.67077 27.3246 9.53173C27.3291 9.51898 27.3382 9.50836 27.3502 9.50194C27.3621 9.49552 27.376 9.49376 27.3892 9.49699C27.4338 9.50407 27.4424 9.54235 27.4428 9.57612C27.4456 9.76788 27.5673 9.89037 27.6952 10.0052C27.7189 10.0285 27.7481 10.0456 27.7801 10.0551C27.8121 10.0645 27.8459 10.0659 27.8786 10.0593C27.9113 10.0526 27.9418 10.0381 27.9676 10.0169C27.9934 9.9957 28.0136 9.96854 28.0264 9.93779C28.0635 9.85662 28.0982 9.85198 28.1634 9.89781C28.1944 9.91396 28.2265 9.9278 28.2595 9.93922C28.6946 10.1239 28.82 10.5291 28.5527 10.9426C28.5087 11.0144 28.4412 11.0688 28.3616 11.0965C28.1388 11.1638 27.9109 11.2128 27.6801 11.2429C27.6643 11.2491 27.637 11.2495 27.6317 11.2164C27.7948 11.097 27.9944 11.0831 28.1785 11.0336C28.2751 11.0115 28.3626 10.9605 28.4294 10.8874C28.4961 10.8144 28.539 10.7227 28.5522 10.6248C28.5676 10.531 28.5573 10.4349 28.5223 10.3466C28.4873 10.2583 28.429 10.1812 28.3535 10.1235C28.3169 10.0851 28.2677 10.0611 28.2148 10.056C28.1619 10.0508 28.1089 10.0649 28.0655 10.0957C27.835 10.2261 27.6991 10.2031 27.5182 10.0037C27.379 9.85033 27.2307 9.72665 27.0134 9.71895C26.8302 9.7811 26.6685 9.90385 26.4678 9.91824C26.4514 9.92659 26.4332 9.93108 26.4148 9.93139C26.3964 9.9317 26.3781 9.92781 26.3614 9.92002L26.3623 9.92227ZM33.5943 2.23334C33.4285 2.29612 33.2735 2.38438 33.1349 2.49494C33.0944 2.52793 33.0512 2.56722 33.066 2.6278C33.0743 2.65539 33.0903 2.68003 33.1121 2.69886C33.1339 2.71769 33.1606 2.72991 33.1892 2.73409C33.2263 2.74543 33.2671 2.7462 33.3054 2.75709C33.323 2.75949 33.3389 2.76852 33.35 2.78232C33.3611 2.79612 33.3664 2.81364 33.3649 2.83127C33.3611 2.86795 33.3286 2.87823 33.2984 2.88761C33.181 2.9211 33.0229 2.82216 32.9489 2.66512C32.8963 2.55561 32.9237 2.47308 33.0471 2.38896C33.2378 2.26255 33.4396 2.15377 33.65 2.06399C33.7368 2.02507 33.8317 2.00774 33.9266 2.01349C34.0215 2.01923 34.1135 2.04788 34.1948 2.09697C34.4212 2.2197 34.538 2.37932 34.3269 2.61808C34.289 2.6611 34.2675 2.71612 34.2662 2.77338C34.265 2.83064 34.2842 2.88645 34.3203 2.93091C34.43 3.06912 34.5856 3.16364 34.7591 3.1975C34.7829 3.20908 34.809 3.21518 34.8355 3.21535C34.862 3.21553 34.8882 3.20977 34.9122 3.19851C34.9361 3.18726 34.9573 3.17078 34.9741 3.15029C34.9909 3.12981 35.0028 3.10584 35.0091 3.08014C35.1181 2.77794 35.2889 2.50161 35.5107 2.26878C35.7133 2.05813 35.7088 2.04687 35.4344 1.93798C35.3554 1.90674 35.3319 1.86392 35.3746 1.78705C35.4128 1.72824 35.4581 1.67436 35.5096 1.62666C35.554 1.58504 35.5934 1.53837 35.6269 1.48761C35.6444 1.45591 35.63 1.40299 35.6895 1.40808C35.749 1.41316 35.759 1.45483 35.7744 1.49695C35.8096 1.58593 35.7608 1.62093 35.6856 1.65204C35.6104 1.68316 35.5377 1.71067 35.55 1.79443C35.5623 1.87818 35.6538 1.87186 35.716 1.88371C35.856 1.88471 35.9956 1.89738 36.1334 1.92158C36.2969 1.96542 36.4704 1.95402 36.6269 1.88916C36.7834 1.8243 36.9141 1.70962 36.9986 1.563C37.0206 1.52298 37.0351 1.4573 37.0995 1.48783C37.1638 1.51836 37.1334 1.57343 37.1197 1.61796C37.0885 1.7075 37.0367 1.78851 36.9684 1.85449C36.9002 1.92047 36.8174 1.96958 36.7268 1.99788C36.5128 2.09127 36.2728 2.10657 36.0488 2.04112C36.0072 2.02752 35.964 2.01925 35.9202 2.01652C35.9031 2.01177 35.8847 2.01357 35.8688 2.02156C35.8529 2.02956 35.8405 2.04317 35.8341 2.05976C35.7818 2.17542 35.7049 2.27838 35.6088 2.36151C35.3946 2.55946 35.2386 2.81195 35.1575 3.09173C35.1445 3.15747 35.1097 3.217 35.0589 3.26079C35.008 3.30458 34.944 3.3301 34.8769 3.33326C34.7973 3.34006 34.789 3.37853 34.803 3.43685C34.8124 3.4664 34.815 3.49768 34.8106 3.52838C34.8063 3.55909 34.7951 3.58844 34.7778 3.61427C34.7606 3.64011 34.7378 3.66177 34.7111 3.67765C34.6844 3.69354 34.6545 3.70326 34.6236 3.70608C34.5846 3.71335 34.5484 3.73128 34.5191 3.75789C34.4897 3.78449 34.4683 3.81871 34.4573 3.85672C34.4304 3.9429 34.3753 4.01762 34.3009 4.06888C34.2264 4.12014 34.1369 4.14496 34.0467 4.13936C33.9173 4.14244 33.8911 4.1919 33.8851 4.29857C33.8838 4.36207 33.8587 4.42283 33.8149 4.46891C33.771 4.515 33.7115 4.54307 33.648 4.54763C33.552 4.54268 33.5351 4.59238 33.52 4.65964C33.4976 4.76252 33.4614 4.86192 33.4124 4.95514C33.362 5.0455 33.3068 5.07779 33.2137 5.01433C33.1933 4.9974 33.1683 4.98699 33.1419 4.98444C33.1155 4.98189 33.0889 4.98733 33.0656 5.00004C33.0205 5.02447 32.9553 5.07113 32.9214 4.99205C32.8874 4.91298 32.9734 4.90237 33.0127 4.86983C33.0307 4.85656 33.0521 4.84852 33.0744 4.84659C33.0966 4.84465 33.119 4.8489 33.139 4.85886C33.2621 4.91564 33.3161 4.84734 33.3564 4.74795C33.3742 4.70314 33.3897 4.65742 33.4027 4.61099C33.407 4.56533 33.427 4.52255 33.4594 4.48998C33.4918 4.45741 33.5345 4.43708 33.5802 4.43246C33.6488 4.41473 33.7085 4.37237 33.7478 4.31349C33.7871 4.25461 33.8034 4.18335 33.7934 4.11335C33.7489 3.93286 33.6474 3.77156 33.5039 3.65332C33.492 3.64183 33.4778 3.63291 33.4623 3.6271C33.4468 3.6213 33.4302 3.61872 33.4136 3.61955C33.3971 3.62038 33.3808 3.62459 33.366 3.63191C33.3511 3.63924 33.3378 3.64953 33.3271 3.66214C33.2696 3.72143 33.2094 3.78049 33.1478 3.83616C32.95 4.01622 32.8408 4.21853 32.9759 4.4869C32.9819 4.49624 32.9846 4.50733 32.9835 4.51838C32.9824 4.52943 32.9777 4.53982 32.97 4.54788C32.9476 4.56718 32.9211 4.55947 32.8963 4.54321C32.8649 4.51902 32.8408 4.48665 32.8266 4.44964C32.7719 4.34996 32.7548 4.23392 32.7786 4.12263C32.8023 4.01133 32.8652 3.91217 32.9559 3.84315C33.2415 3.57485 33.5187 3.28514 33.7811 2.99473C33.9317 2.83077 34.1167 2.6975 34.2244 2.49451C34.3034 2.34457 34.2769 2.26123 34.118 2.1965C34.0337 2.16194 33.9426 2.1468 33.8516 2.1522C33.7605 2.1576 33.6718 2.18341 33.5921 2.2277L33.5943 2.23334ZM31.415 5.96451C31.4363 5.94419 31.4646 5.93296 31.494 5.93318C31.523 5.93307 31.5511 5.94331 31.5731 5.96206C31.5952 5.98081 31.6098 6.00683 31.6142 6.03541C31.6212 6.09912 31.5586 6.08615 31.516 6.0874C31.4285 6.09585 31.3441 6.12439 31.2694 6.17079C31.2197 6.19701 31.1743 6.22414 31.1218 6.15762C31.0693 6.09111 31.0009 6.09995 30.9347 6.15359C30.9094 6.18134 30.8778 6.20247 30.8424 6.21511C30.8071 6.22774 30.7692 6.2315 30.7321 6.22605C30.7062 6.21641 30.6784 6.21281 30.6508 6.21552C30.6232 6.21823 30.5966 6.22718 30.573 6.24168C30.5494 6.25619 30.5295 6.27588 30.5146 6.29924C30.4998 6.3226 30.4904 6.34903 30.4873 6.37651C30.4639 6.44287 30.4363 6.50775 30.405 6.57078C30.3919 6.60845 30.3678 6.64134 30.3357 6.66518C30.3037 6.68903 30.2653 6.70273 30.2254 6.70452C30.1632 6.70603 30.1036 6.73011 30.0578 6.77226C30.012 6.8144 29.9831 6.87172 29.9765 6.93352C29.9436 7.09268 29.8954 7.24835 29.8328 7.39841C29.7189 7.62862 29.6159 7.85975 29.3732 8.00549C29.2294 8.09114 29.0957 8.19887 28.954 8.29285C28.6474 8.48929 28.3058 8.6247 27.9479 8.69162C27.7949 8.70516 27.6469 8.75398 27.5158 8.83423C27.4575 8.87821 27.4119 8.93797 27.3574 8.98826C27.3277 9.01565 27.2884 9.03514 27.2511 9.0004C27.2139 8.96565 27.2469 8.93692 27.2626 8.90724C27.2942 8.84671 27.3378 8.79316 27.3906 8.74981C27.4435 8.70646 27.5046 8.6742 27.5702 8.65497C27.7551 8.5908 27.9511 8.58742 28.1355 8.52865C28.2515 8.49178 28.3721 8.44659 28.377 8.29085C28.3785 8.26812 28.3849 8.24473 28.4088 8.23916C28.4327 8.23359 28.4509 8.26289 28.4654 8.28318C28.5477 8.39523 28.5971 8.40434 28.7046 8.30961C28.7876 8.23079 28.8825 8.16546 28.9858 8.11602C29.1638 8.03765 29.2799 7.86911 29.444 7.77541C29.5574 7.7122 29.6112 7.56445 29.6599 7.43695C29.7358 7.23614 29.8011 7.0317 29.8811 6.82797C29.9364 6.69395 30.0014 6.56131 30.1887 6.57569C30.2566 6.57877 30.2809 6.51829 30.299 6.46161C30.3569 6.30929 30.4534 6.1745 30.579 6.0704C30.588 6.06131 30.5996 6.05534 30.6123 6.05338C30.6249 6.05142 30.6378 6.05358 30.6491 6.05954C30.7023 6.07874 30.7597 6.08309 30.8152 6.07211C30.8708 6.06113 30.9222 6.03524 30.9641 5.99724C30.99 5.96697 31.0267 5.94803 31.0664 5.9445C31.106 5.94097 31.1455 5.95313 31.1762 5.97837C31.2135 6.00027 31.257 6.00948 31.3 6.00463C31.3431 5.99978 31.3834 5.98112 31.415 5.95146L31.415 5.96451ZM28.4953 6.50924C28.4179 6.40959 28.3533 6.32571 28.2844 6.24093C28.2155 6.15615 28.2125 6.1091 28.3267 6.08078C28.4284 6.0517 28.5217 5.99865 28.5986 5.9261C28.809 5.74495 29.0711 5.658 29.3166 5.54242C29.3708 5.52094 29.4104 5.54174 29.4307 5.59625C29.451 5.65076 29.4244 5.66263 29.3842 5.67334C29.0853 5.76464 28.8053 5.90919 28.5578 6.09999C28.4264 6.19376 28.4137 6.21444 28.5135 6.33778C28.5375 6.36867 28.5685 6.39418 28.5955 6.4226C28.6224 6.45102 28.6867 6.50113 28.6722 6.56682C28.6578 6.6325 28.591 6.6355 28.5358 6.64438C28.3433 6.67667 28.1607 6.75237 28.0019 6.8657C27.843 6.97903 27.7121 7.127 27.6191 7.29836C27.4979 7.5002 27.632 7.63734 27.7932 7.73764C27.8285 7.76262 27.8689 7.77945 27.9115 7.78688C27.9541 7.79432 27.9978 7.79219 28.0396 7.78065C28.0813 7.76911 28.1199 7.74844 28.1526 7.72015C28.1854 7.69187 28.2114 7.65666 28.2289 7.6171C28.2645 7.55214 28.2887 7.4813 28.3208 7.41385C28.3528 7.3464 28.3889 7.23958 28.2811 7.16888C28.2636 7.15759 28.2429 7.13841 28.2602 7.11595C28.2742 7.10024 28.2935 7.09026 28.3144 7.08794C28.4353 7.06345 28.5036 7.14329 28.478 7.27332C28.4549 7.42561 28.4036 7.57233 28.3268 7.70601C28.2916 7.76499 28.2419 7.81407 28.1824 7.84859C28.1229 7.88311 28.0557 7.90193 27.9869 7.90329C27.8833 7.90385 27.781 7.88052 27.688 7.83509C27.595 7.78967 27.5137 7.72339 27.4507 7.64143C27.4383 7.63197 27.4287 7.61932 27.423 7.60484C27.4172 7.59036 27.4155 7.57458 27.4181 7.5592C27.4562 7.44766 27.4555 7.32409 27.5243 7.22387C27.7793 6.86862 28.0544 6.58363 28.4998 6.4944L28.4953 6.50924ZM29.0209 5.35989C29.0365 5.39931 29.0622 5.44776 28.9975 5.46562C28.9637 5.48055 28.9258 5.48347 28.8901 5.47388C28.8544 5.4643 28.8232 5.44279 28.8015 5.41295C28.7728 5.36697 28.8023 5.32923 28.847 5.3102C28.9216 5.26108 28.9858 5.26821 29.0254 5.34505L29.0209 5.35989Z" fill="#DCFF80"/>
<path d="M57.7183 8.39761C57.5995 8.16066 57.4927 7.91681 57.3618 7.68824C57.1326 7.29264 56.878 6.91233 56.5996 6.54971C56.0059 5.77318 55.3694 5.02979 54.7368 4.29018C54.1183 3.57606 53.4204 2.9347 52.6567 2.37848C51.8552 1.78329 50.9661 1.31612 50.0213 0.993661C49.3089 0.755847 48.5768 0.581896 47.8336 0.473866C47.1892 0.38091 46.5367 0.358114 45.8874 0.405882C45.6837 0.438227 45.4773 0.450694 45.2712 0.443108L45.1524 1.07895C45.1621 1.08804 45.1735 1.09512 45.1859 1.09978C45.1984 1.10444 45.2116 1.10658 45.2249 1.10609C45.2382 1.10559 45.2512 1.10246 45.2633 1.09689C45.2753 1.09131 45.2861 1.0834 45.2951 1.07361C45.3364 1.04019 45.3714 0.99951 45.41 0.964071C45.4162 0.956453 45.4246 0.95106 45.4342 0.948712C45.4437 0.946363 45.4537 0.947189 45.4627 0.951066C45.4669 0.953534 45.4706 0.956842 45.4735 0.960784C45.4764 0.964727 45.4785 0.969221 45.4796 0.973992C45.4807 0.978763 45.4808 0.983709 45.4799 0.988528C45.4791 0.993347 45.4772 0.997938 45.4745 1.00202C45.4373 1.09393 45.3793 1.17591 45.3049 1.24146C45.2721 1.27037 45.2425 1.25724 45.2166 1.22497L45.1403 1.14371L45.0001 1.89436C45.0621 1.8968 45.0374 1.9394 45.0334 1.96912C45.0103 2.13387 44.9918 2.29797 44.9598 2.46107C44.8642 2.93216 45.0493 3.32773 45.2821 3.7124C45.3381 3.80361 45.4436 3.8096 45.529 3.84992C45.6144 3.89024 45.6787 3.86416 45.7415 3.92768C45.746 3.93109 45.7513 3.93341 45.757 3.93445C45.7626 3.9355 45.7683 3.93525 45.7738 3.93372C45.9416 3.85083 46.1315 3.88629 46.2996 3.80192C46.5918 3.66406 46.848 3.46 47.0476 3.20592C47.1429 3.07487 47.2107 2.92585 47.2467 2.76787C47.3216 2.47881 47.4854 2.22061 47.7151 2.02977C47.8869 1.89322 48.0478 1.7435 48.1963 1.58196C48.2817 1.48366 48.3185 1.49053 48.4067 1.58926C48.4948 1.68798 48.6145 1.69967 48.7024 1.56376C48.732 1.52915 48.7715 1.50439 48.8156 1.49276C48.8596 1.48113 48.9062 1.48318 48.9491 1.49865L49.4573 1.74589C49.6318 1.83706 49.7856 1.96327 49.909 2.11662C49.9281 2.13693 49.9434 2.16111 49.9244 2.18955C49.9053 2.21798 49.8846 2.2065 49.8611 2.2021L49.8272 2.19578C49.7271 2.17709 49.6135 2.13302 49.5235 2.19084C49.3852 2.27557 49.2708 2.39418 49.1911 2.53545C49.1638 2.58366 49.1765 2.61345 49.2313 2.62979C49.5268 2.72763 49.7999 2.88831 50.1028 2.96315C50.1499 2.97195 50.1793 2.97744 50.2114 2.93622C50.3994 2.68802 50.6752 2.59786 50.9652 2.53778C51.0018 2.52939 51.0414 2.52918 51.0789 2.524C51.0921 2.52019 51.1049 2.51491 51.1169 2.50824C50.4855 1.93336 49.8196 1.41295 48.9896 1.08581C49.1581 1.07862 49.3255 1.11567 49.4753 1.19327C49.7908 1.3159 50.0964 1.46261 50.3895 1.6321C50.7961 1.9015 51.2235 2.14126 51.575 2.48566C51.622 2.53211 51.6635 2.58381 51.6986 2.63973C51.7469 2.72851 51.8237 2.79841 51.9166 2.83815C52.0095 2.87789 52.1131 2.88515 52.2106 2.85874C52.4907 2.78615 52.6996 2.9318 52.9022 3.07017C53.0996 3.2168 53.2895 3.37326 53.4712 3.53896C53.4935 3.55835 53.5272 3.58141 53.5089 3.61453C53.4905 3.64766 53.4535 3.62552 53.4278 3.61616C53.3523 3.58667 53.2714 3.57366 53.1905 3.57798C53.1096 3.58231 53.0305 3.60387 52.9586 3.64123C52.8293 3.70543 52.6828 3.73138 52.547 3.81416C52.704 3.91196 52.8703 3.99404 53.0435 4.05921C53.6733 4.33699 54.2774 4.67001 54.8485 5.05435C54.9024 5.09184 54.972 5.11856 54.996 5.22662C54.8568 5.15644 54.7395 5.0995 54.6245 5.03841C53.9338 4.67485 53.2296 4.34023 52.5119 4.03457C52.4219 3.9949 52.3721 4.00846 52.3575 4.1032C52.3335 4.27237 52.224 4.30372 52.0743 4.30622C51.6174 4.3207 51.1664 4.41315 50.7407 4.5796C50.5872 4.63471 50.5707 4.67427 50.6891 4.79082C50.7445 4.83804 50.8102 4.87181 50.8809 4.8895C50.9515 4.9072 51.0253 4.90833 51.0965 4.89281C51.1479 4.88222 51.2011 4.88529 51.2509 4.90172C51.3006 4.91814 51.3452 4.94735 51.3802 4.98641C51.4151 5.02548 51.4392 5.07303 51.45 5.12432C51.4608 5.17561 51.458 5.22885 51.4418 5.2787C51.3846 5.58484 51.5393 5.83308 51.7032 6.06475C51.9119 6.35811 51.8467 6.58506 51.4961 6.6841C51.2594 6.76115 51.0164 6.8177 50.77 6.85311C50.4436 6.88811 50.2843 6.72128 50.27 6.38198C50.2842 6.25673 50.2693 6.12991 50.2265 6.01134C50.1988 5.96045 50.1598 5.91663 50.1124 5.88328C50.065 5.84993 50.0106 5.82794 49.9533 5.81901C49.8961 5.81008 49.8375 5.81446 49.7822 5.83181C49.7269 5.84916 49.6764 5.87901 49.6345 5.91904C49.5328 6.02342 49.5435 6.01476 49.452 5.88495C49.4127 5.8282 49.3861 5.76363 49.3741 5.69566C49.3621 5.62769 49.3649 5.55793 49.3824 5.49115C49.425 5.25989 49.4898 5.03327 49.5758 4.81441C49.6052 4.73005 49.5865 4.70826 49.5027 4.70023C49.2731 4.66025 49.0368 4.70612 48.8388 4.8291C48.7848 4.86447 48.7232 4.88686 48.6591 4.89453C48.448 4.93606 48.2339 4.96127 48.019 4.96994C47.9979 4.97135 47.9773 4.9772 47.9587 4.9871C47.94 4.99701 47.9237 5.01074 47.9107 5.02741C47.7682 5.179 47.6218 5.32682 47.478 5.47667C47.425 5.53225 47.3611 5.57629 47.2903 5.60605C47.2194 5.6358 47.1432 5.65063 47.0664 5.6496C46.9737 5.64856 46.882 5.66946 46.7989 5.71058C46.7158 5.75171 46.6436 5.81189 46.5881 5.88623C46.5577 5.93325 46.5129 5.9692 46.4604 5.98876C46.4079 6.00831 46.3505 6.01042 46.2967 5.99479L46.2732 5.99039C46.1915 5.98732 46.0951 5.95713 46.0681 6.077C46.06 6.12693 46.0716 6.17808 46.1005 6.21959C46.1295 6.26111 46.1734 6.28972 46.2231 6.29938C46.8512 6.43498 47.277 6.84656 47.6517 7.3278C47.7635 7.4882 47.8881 7.63932 48.0242 7.77971C48.0694 7.82319 48.1 7.8228 48.1473 7.78137C48.2845 7.648 48.4607 7.5619 48.6502 7.53562C48.7562 7.51865 48.8648 7.54022 48.9563 7.59643C49.0478 7.65264 49.1161 7.73976 49.1489 7.84202C49.1792 7.91622 49.2028 7.99374 49.2297 8.07034C49.2565 8.14694 49.2831 8.15953 49.359 8.12802C49.4343 8.09175 49.5184 8.07796 49.6013 8.08831C49.6842 8.09866 49.7624 8.13271 49.8264 8.18637C49.8704 8.22121 49.9215 8.24615 49.976 8.25949C50.0306 8.27283 50.0873 8.27426 50.1425 8.26368C50.1764 8.2557 50.2115 8.25488 50.2458 8.26127C50.28 8.26766 50.3125 8.28112 50.3412 8.3008C50.4177 8.35431 50.5104 8.37969 50.6035 8.37263C50.7856 8.36314 50.9668 8.40519 51.1261 8.49395C51.2855 8.58272 51.4166 8.7146 51.5044 8.87448C51.702 9.18536 51.8094 9.54501 51.8145 9.91334C51.8227 10.0126 51.7921 10.1112 51.7291 10.1883C51.6661 10.2655 51.5757 10.3152 51.4768 10.327C51.3733 10.3492 51.2686 10.3652 51.1632 10.3751C51.0598 10.3783 50.9589 10.4072 50.8695 10.4591C50.78 10.5109 50.7048 10.5842 50.6507 10.6723C50.5023 10.9148 50.3842 11.1747 50.2991 11.446C50.2778 11.5082 50.2729 11.5748 50.2849 11.6394C50.2968 11.7041 50.3252 11.7646 50.3672 11.8151C50.3905 11.8454 50.4383 11.8832 50.3826 11.92C50.327 11.9569 50.3045 11.9146 50.2758 11.8803C50.2298 11.833 50.1959 11.7753 50.177 11.7121C50.158 11.6489 50.1546 11.5821 50.1669 11.5172C50.2498 11.1444 50.415 10.7948 50.6505 10.4941C50.7071 10.4284 50.7766 10.375 50.8547 10.3372C50.9327 10.2993 51.0177 10.2779 51.1044 10.2742C51.2085 10.2632 51.3108 10.2534 51.4155 10.2394C51.4565 10.2398 51.4971 10.2313 51.5344 10.2143C51.5718 10.1973 51.6049 10.1723 51.6315 10.1411C51.6581 10.1099 51.6775 10.0732 51.6884 10.0337C51.6993 9.99411 51.7013 9.95266 51.6944 9.91223C51.6934 9.54026 51.5776 9.17766 51.3628 8.87393C51.2859 8.76268 51.1837 8.67125 51.0646 8.60717C50.9455 8.54309 50.8129 8.50818 50.6777 8.50531C50.6319 8.51074 50.5855 8.50825 50.5405 8.49795C50.2732 8.37949 49.9542 8.44787 49.7066 8.25691C49.6585 8.22409 49.6019 8.206 49.5436 8.20487C49.4854 8.20373 49.4281 8.21959 49.3788 8.25052C49.3497 8.26175 49.3249 8.28177 49.3077 8.30778C49.2906 8.33379 49.282 8.3645 49.2831 8.39564C49.2815 8.43801 49.2709 8.47955 49.252 8.51751C49.233 8.55547 49.2063 8.58897 49.1735 8.61582C49.0877 8.70795 49.0048 8.70314 48.9021 8.61693C48.7858 8.49707 48.6314 8.42139 48.4654 8.40283C48.4121 8.39719 48.3608 8.37972 48.3152 8.35169C48.2695 8.32367 48.2307 8.2858 48.2016 8.24086C47.8593 7.83115 47.5695 7.37643 47.1873 7.00041C47.0075 6.82016 46.801 6.66858 46.5752 6.55097C46.4687 6.49694 46.352 6.46581 46.2328 6.4596C46.0823 6.44978 46.0278 6.50509 46.0438 6.65584C46.0417 6.75277 46.071 6.84779 46.1274 6.92668C46.1838 7.00557 46.2642 7.0641 46.3565 7.09353C46.7477 7.23361 47.0228 7.5226 47.2851 7.83054C47.3682 7.92868 47.416 8.05184 47.4209 8.18034C47.4512 8.56778 47.5264 8.95038 47.6451 9.32044C47.7475 9.674 47.7894 10.0423 47.7691 10.4098C47.7622 10.5647 47.7898 10.7191 47.8497 10.862C47.9097 11.0049 48.0006 11.1327 48.1159 11.2362C48.2227 11.3415 48.3309 11.447 48.4322 11.5573C48.5881 11.7197 48.6934 11.924 48.7354 12.1452C48.7773 12.3664 48.7541 12.595 48.6686 12.8032C48.5616 13.0413 48.5488 13.311 48.6327 13.5581C48.7133 13.7496 48.8128 13.9325 48.9298 14.1041C49.0109 14.2244 49.1507 14.2672 49.2561 14.3554C49.3028 14.3903 49.3465 14.429 49.3867 14.4712C49.4143 14.4994 49.4313 14.5362 49.4348 14.5755C49.4383 14.6147 49.4281 14.654 49.4059 14.6865C49.378 14.7275 49.3606 14.7747 49.3554 14.8239C49.3502 14.8732 49.3573 14.923 49.3761 14.9688C49.4554 15.258 49.5757 15.5343 49.7331 15.7895C50.006 16.1878 50.0639 16.6525 50.05 17.1267C50.0468 17.2251 50.0407 17.3229 50.0361 17.4455C50.208 17.3405 50.3572 17.2434 50.5123 17.1551C50.8347 16.9824 51.1399 16.7793 51.4237 16.5485C51.7925 16.2472 52.1903 15.9832 52.6112 15.7604C52.807 15.6231 52.9774 15.453 53.1149 15.2574C53.4898 14.7872 53.7149 14.2153 53.7612 13.6158C53.8504 12.8855 53.8692 12.1484 53.8174 11.4146C53.7753 11.038 53.8021 10.657 53.8965 10.29C54.0959 9.64638 54.4685 9.13563 55.0874 8.84758C55.4986 8.65864 55.9559 8.59323 56.4036 8.65929C56.8175 8.70171 57.224 8.79863 57.6125 8.94753C57.6729 8.97224 57.7293 9.00587 57.7797 9.0473C57.8328 9.0892 57.8625 9.14198 57.8214 9.20741C57.7802 9.27283 57.8138 9.305 57.8297 9.35061C57.9571 9.72507 58.0655 10.1058 58.1543 10.4912M48.4497 1.12207C48.5101 1.13334 48.5385 1.15236 48.5258 1.21243C48.513 1.2725 48.4936 1.29477 48.4412 1.28193C48.3888 1.26909 48.3211 1.23971 48.3274 1.17384C48.3336 1.10798 48.4123 1.13488 48.4497 1.12207ZM51.5828 2.56632C51.6608 2.58089 51.7212 2.64091 51.7116 2.69243C51.702 2.74394 51.6661 2.74029 51.6331 2.72955C51.57 2.70862 51.5055 2.67831 51.5043 2.60344C51.5031 2.52857 51.5543 2.56404 51.5858 2.56687L51.5828 2.56632Z" fill="#DCFF80"/>
<path d="M71.8896 24.8596V25.3342H76.0833V24.3867H71.8896V24.8596Z" stroke="#363636" stroke-width="0.492604" stroke-miterlimit="10"/>
<path d="M81.6516 30.5449C84.7267 30.5449 87.2196 27.7874 87.2196 24.3857C87.2196 20.9841 84.7267 18.2266 81.6516 18.2266C78.5764 18.2266 76.0835 20.9841 76.0835 24.3857C76.0835 27.7874 78.5764 30.5449 81.6516 30.5449Z" stroke="#363636" stroke-width="0.492604" stroke-miterlimit="10"/>
<path d="M66.3215 31.0176C69.3966 31.0176 71.8895 28.26 71.8895 24.8584C71.8895 21.4568 69.3966 18.6992 66.3215 18.6992C63.2463 18.6992 60.7534 21.4568 60.7534 24.8584C60.7534 28.26 63.2463 31.0176 66.3215 31.0176Z" stroke="#363636" stroke-width="0.492604" stroke-miterlimit="10"/>
<path d="M71.0981 32.1836C71.4656 32.598 71.9127 32.9342 72.4129 33.172C72.9131 33.4098 73.4561 33.5444 74.0094 33.5678C75.86 33.6204 77.0012 32.3576 77.1522 32.1836" stroke="#363636" stroke-width="0.492604" stroke-miterlimit="10"/>
<path d="M66.0245 26.3587C66.76 26.3587 67.3562 25.7624 67.3562 25.027C67.3562 24.2915 66.76 23.6953 66.0245 23.6953C65.2891 23.6953 64.6929 24.2915 64.6929 25.027C64.6929 25.7624 65.2891 26.3587 66.0245 26.3587Z" fill="#363636"/>
<path d="M81.6281 25.8469C82.3635 25.8469 82.9597 25.2507 82.9597 24.5153C82.9597 23.7798 82.3635 23.1836 81.6281 23.1836C80.8926 23.1836 80.2964 23.7798 80.2964 24.5153C80.2964 25.2507 80.8926 25.8469 81.6281 25.8469Z" fill="#363636"/>
<path d="M43.4482 24.5315V25.006H39.2545V24.0586H43.4482V24.5315Z" stroke="#DCFF80" stroke-width="0.492604" stroke-miterlimit="10"/>
<path d="M33.6863 30.2168C30.6112 30.2168 28.1183 27.4592 28.1183 24.0576C28.1183 20.656 30.6112 17.8984 33.6863 17.8984C36.7615 17.8984 39.2544 20.656 39.2544 24.0576C39.2544 27.4592 36.7615 30.2168 33.6863 30.2168Z" stroke="#DCFF80" stroke-width="0.492604" stroke-miterlimit="10"/>
<path d="M49.0164 30.6895C45.9413 30.6895 43.4483 27.9319 43.4483 24.5303C43.4483 21.1287 45.9413 18.3711 49.0164 18.3711C52.0916 18.3711 54.5845 21.1287 54.5845 24.5303C54.5845 27.9319 52.0916 30.6895 49.0164 30.6895Z" stroke="#DCFF80" stroke-width="0.492604" stroke-miterlimit="10"/>
<path d="M44.2397 31.8555C43.8723 32.2699 43.4252 32.6061 42.925 32.8439C42.4248 33.0817 41.8818 33.2163 41.3285 33.2397C39.4779 33.2922 38.3367 32.0295 38.1856 31.8555" stroke="#DCFF80" stroke-width="0.492604" stroke-miterlimit="10"/>
<path d="M49.3133 26.0305C48.5779 26.0305 47.9817 25.4343 47.9817 24.6989C47.9817 23.9634 48.5779 23.3672 49.3133 23.3672C50.0488 23.3672 50.645 23.9634 50.645 24.6989C50.645 25.4343 50.0488 26.0305 49.3133 26.0305Z" fill="#DCFF80"/>
<path d="M33.7093 25.5188C32.9739 25.5188 32.3777 24.9226 32.3777 24.1871C32.3777 23.4517 32.9739 22.8555 33.7093 22.8555C34.4448 22.8555 35.041 23.4517 35.041 24.1871C35.041 24.9226 34.4448 25.5188 33.7093 25.5188Z" fill="#DCFF80"/>
<path d="M11.4772 45.0985V51.2305H9.58559C9.48051 50.7471 9.42796 50.4003 9.42796 50.1901C9.42796 50.1691 9.42796 50.1428 9.42796 50.1113C9.42796 50.0692 9.42796 50.0325 9.42796 50.0009C8.62929 51.0098 7.49958 51.5142 6.03885 51.5142C4.30488 51.5142 2.93348 50.8994 1.92462 49.6699C1.05239 48.598 0.616268 47.2476 0.616268 45.6187C0.616268 43.7271 1.21527 42.2244 2.41329 41.1104C3.45366 40.1436 4.76202 39.6602 6.33835 39.6602C7.76756 39.6602 8.95506 40.0911 9.90086 40.9528C10.7206 41.6989 11.1882 42.6395 11.3038 43.7744H8.45064C8.19842 42.65 7.47856 42.0877 6.29106 42.0877C5.42933 42.0877 4.76727 42.3978 4.30488 43.0178C3.84249 43.6273 3.6113 44.5048 3.6113 45.6503C3.6113 47.9412 4.54659 49.0867 6.41717 49.0867C7.79383 49.0867 8.582 48.4561 8.78167 47.1951H6.73243V45.0985H11.4772ZM19.4423 43.002L19.4266 45.2089C19.0378 45.0933 18.6699 45.0355 18.3231 45.0355C16.957 45.0355 16.2739 45.913 16.2739 47.668V51.2305H13.5942V43.0493H16.1793V44.4522C16.4946 43.3698 17.3721 42.8286 18.8118 42.8286C18.98 42.8286 19.1901 42.8864 19.4423 43.002ZM28.9232 48.7241C28.7971 49.2075 28.5554 49.6541 28.1981 50.064C27.3889 50.9888 26.2697 51.4512 24.8405 51.4512C23.5479 51.4512 22.5023 51.0939 21.7036 50.3792C20.8104 49.5806 20.3638 48.5244 20.3638 47.2108C20.3638 45.8342 20.8262 44.7307 21.7509 43.9005C22.5496 43.1859 23.5427 42.8286 24.7302 42.8286C26.1699 42.8286 27.2786 43.3015 28.0563 44.2473C28.7393 45.0775 29.0809 46.1652 29.0809 47.5103C29.0809 47.6049 29.0809 47.689 29.0809 47.7625H22.9962C23.0173 48.351 23.1906 48.8134 23.5164 49.1497C23.8422 49.4755 24.2836 49.6384 24.8405 49.6384C25.5236 49.6384 26.0438 49.3336 26.4011 48.7241H28.9232ZM26.4484 46.2335C26.3118 45.1721 25.7496 44.6414 24.7617 44.6414C23.7634 44.6414 23.1854 45.1721 23.0278 46.2335H26.4484ZM38.8597 48.7241C38.7336 49.2075 38.4919 49.6541 38.1346 50.064C37.3254 50.9888 36.2062 51.4512 34.777 51.4512C33.4844 51.4512 32.4387 51.0939 31.6401 50.3792C30.7468 49.5806 30.3002 48.5244 30.3002 47.2108C30.3002 45.8342 30.7626 44.7307 31.6874 43.9005C32.486 43.1859 33.4791 42.8286 34.6666 42.8286C36.1063 42.8286 37.215 43.3015 37.9927 44.2473C38.6758 45.0775 39.0173 46.1652 39.0173 47.5103C39.0173 47.6049 39.0173 47.689 39.0173 47.7625H32.9327C32.9537 48.351 33.1271 48.8134 33.4529 49.1497C33.7786 49.4755 34.22 49.6384 34.777 49.6384C35.46 49.6384 35.9802 49.3336 36.3375 48.7241H38.8597ZM36.3848 46.2335C36.2482 45.1721 35.686 44.6414 34.6982 44.6414C33.6998 44.6414 33.1218 45.1721 32.9642 46.2335H36.3848ZM43.2947 43.0493V44.137C43.9463 43.2647 44.8395 42.8286 45.9745 42.8286C47.0674 42.8286 47.8661 43.1912 48.3705 43.9163C48.6963 44.3997 48.8592 45.1458 48.8592 46.1547V51.2305H46.1636V46.5961C46.1636 46.1652 46.1216 45.8447 46.0375 45.6345C45.8694 45.2246 45.4963 45.0197 44.9183 45.0197C44.2878 45.0197 43.8464 45.2614 43.5942 45.7448C43.4576 45.997 43.3893 46.3701 43.3893 46.864V51.2305H40.7095V43.0493H43.2947ZM63.9994 39.9439V51.2305H61.0517V46.5645H57.2212V51.2305H54.2735V39.9439H57.2212V44.0266H61.0517V39.9439H63.9994ZM74.3567 48.7241C74.2306 49.2075 73.9889 49.6541 73.6316 50.064C72.8224 50.9888 71.7032 51.4512 70.274 51.4512C68.9814 51.4512 67.9358 51.0939 67.1371 50.3792C66.2438 49.5806 65.7972 48.5244 65.7972 47.2108C65.7972 45.8342 66.2596 44.7307 67.1844 43.9005C67.983 43.1859 68.9761 42.8286 70.1636 42.8286C71.6034 42.8286 72.712 43.3015 73.4897 44.2473C74.1728 45.0775 74.5143 46.1652 74.5143 47.5103C74.5143 47.6049 74.5143 47.689 74.5143 47.7625H68.4297C68.4507 48.351 68.6241 48.8134 68.9499 49.1497C69.2756 49.4755 69.717 49.6384 70.274 49.6384C70.9571 49.6384 71.4772 49.3336 71.8346 48.7241H74.3567ZM71.8818 46.2335C71.7452 45.1721 71.183 44.6414 70.1952 44.6414C69.1968 44.6414 68.6188 45.1721 68.4612 46.2335H71.8818ZM82.0547 43.002L82.039 45.2089C81.6501 45.0933 81.2823 45.0355 80.9355 45.0355C79.5694 45.0355 78.8863 45.913 78.8863 47.668V51.2305H76.2065V43.0493H78.7917V44.4522C79.107 43.3698 79.9845 42.8286 81.4242 42.8286C81.5923 42.8286 81.8025 42.8864 82.0547 43.002ZM87.311 51.4512C85.9344 51.4512 84.8415 50.9993 84.0323 50.0955C83.3282 49.3073 82.9761 48.3195 82.9761 47.132C82.9761 45.7659 83.428 44.6782 84.3318 43.869C85.1199 43.1754 86.1078 42.8286 87.2953 42.8286C88.6825 42.8286 89.7806 43.2752 90.5898 44.1685C91.2834 44.9357 91.6302 45.9182 91.6302 47.1162C91.6302 48.4929 91.1783 49.5858 90.2745 50.395C89.4864 51.0991 88.4985 51.4512 87.311 51.4512ZM87.2795 44.7833C86.7751 44.7833 86.3863 44.9882 86.113 45.398C85.8398 45.8079 85.7032 46.3859 85.7032 47.132C85.7032 48.7083 86.2391 49.4965 87.311 49.4965C88.383 49.4965 88.9189 48.7031 88.9189 47.1162C88.9189 45.5609 88.3724 44.7833 87.2795 44.7833ZM101.426 48.7241C101.3 49.2075 101.058 49.6541 100.701 50.064C99.8916 50.9888 98.7724 51.4512 97.3432 51.4512C96.0506 51.4512 95.0049 51.0939 94.2063 50.3792C93.313 49.5806 92.8664 48.5244 92.8664 47.2108C92.8664 45.8342 93.3288 44.7307 94.2536 43.9005C95.0522 43.1859 96.0453 42.8286 97.2328 42.8286C98.6725 42.8286 99.7812 43.3015 100.559 44.2473C101.242 45.0775 101.583 46.1652 101.583 47.5103C101.583 47.6049 101.583 47.689 101.583 47.7625H95.4989C95.5199 48.351 95.6933 48.8134 96.019 49.1497C96.3448 49.4755 96.7862 49.6384 97.3432 49.6384C98.0262 49.6384 98.5464 49.3336 98.9037 48.7241H101.426ZM98.951 46.2335C98.8144 45.1721 98.2522 44.6414 97.2643 44.6414C96.266 44.6414 95.688 45.1721 95.5304 46.2335H98.951ZM110.29 45.3508H107.816C107.774 45.0355 107.647 44.8148 107.437 44.6887C107.238 44.5521 106.907 44.4838 106.444 44.4838C105.73 44.4838 105.372 44.7045 105.372 45.1458C105.372 45.377 105.483 45.5452 105.703 45.6503C105.934 45.7553 106.46 45.8867 107.28 46.0443C108.467 46.2755 109.297 46.5855 109.77 46.9744C110.254 47.3527 110.495 47.9044 110.495 48.6295C110.495 49.5753 110.101 50.3004 109.313 50.8049C108.619 51.2357 107.7 51.4512 106.554 51.4512C105.104 51.4512 104.032 51.1096 103.339 50.4265C103.002 50.0903 102.782 49.8275 102.677 49.6384C102.582 49.4387 102.519 49.1182 102.488 48.6768H105.12C105.162 49.0551 105.288 49.3231 105.498 49.4807C105.719 49.6279 106.082 49.7014 106.586 49.7014C107.427 49.7014 107.847 49.4229 107.847 48.866C107.847 48.6243 107.747 48.4509 107.548 48.3458C107.348 48.2302 106.875 48.0883 106.129 47.9202C104.962 47.668 104.169 47.4263 103.749 47.1951C103.076 46.8167 102.74 46.2072 102.74 45.3665C102.74 44.5468 103.066 43.9215 103.717 43.4907C104.369 43.0493 105.293 42.8286 106.491 42.8286C107.973 42.8286 109.029 43.1807 109.66 43.8848C110.038 44.2946 110.248 44.7833 110.29 45.3508Z" fill="#363636"/>
</svg>
