<svg width="81" height="80" viewBox="0 0 81 80" fill="none" xmlns="http://www.w3.org/2000/svg">
<g clip-path="url(#clip0_469_10791)">
<circle cx="40.6045" cy="40" r="38.125" fill="white" stroke="#DCFF80" stroke-width="3.75"/>
<path d="M21.6148 33.1539C21.1372 31.9022 22.0344 31.5983 23.192 31.2727C24.3497 30.9471 25.2541 31.0267 25.7316 32.4086C26.2091 33.7906 27.4174 34.818 28.5678 35.7658C29.5234 36.4975 30.1999 37.534 30.4852 38.7033C30.6877 39.6149 30.3911 40.0418 29.5229 40.2444C26.9182 40.8521 24.3135 41.4888 21.716 42.1255C21.5621 42.192 21.3947 42.2217 21.2272 42.2121C21.0597 42.2026 20.8968 42.154 20.7514 42.0704C20.606 41.9868 20.4821 41.8705 20.3895 41.7306C20.297 41.5907 20.2384 41.4311 20.2183 41.2646C19.9243 40.1965 20.006 39.0599 20.4499 38.0449C21.0142 36.5327 21.7595 35.0567 21.6148 33.1539Z" fill="#363636"/>
<path d="M52.1834 22.6405C52.2184 23.9698 52.4955 25.2815 53.001 26.5114C53.2253 27.0899 53.4043 27.685 53.5364 28.2913C53.9633 30.7729 53.124 31.5688 50.7653 30.9538C48.6381 30.3967 46.5327 29.7745 44.3911 29.2825C43.1177 28.9858 42.944 28.3274 43.342 27.2132C43.6439 26.4052 44.141 25.6844 44.789 25.115C46.1275 23.9067 47.6252 22.8214 48.3198 21.0488C48.5875 20.3759 48.9999 20.4917 49.4196 20.9113C49.6 21.1371 49.8398 21.3081 50.112 21.4053C50.3842 21.5024 50.6781 21.5217 50.9607 21.4612C52.1689 21.1501 52.3643 21.7506 52.1834 22.6405Z" fill="#363636"/>
<path d="M33.0174 49.2853C33.1187 50.168 32.6846 50.1824 32.142 50.0595C30.967 49.8266 29.8503 49.3617 28.8572 48.692C27.073 47.377 24.8832 46.7316 22.671 46.8687C20.8478 46.9772 21.4483 45.4217 21.0648 44.5245C20.6814 43.6273 21.2095 43.2439 22.0416 43.0774C24.6897 42.4697 27.3378 41.833 30.0003 41.1963C30.5068 41.0733 30.9988 41.0443 31.158 41.6593C31.8092 44.2206 32.4314 46.8325 33.0174 49.2853Z" fill="#363636"/>
<path d="M43.4645 30.0497L52.0311 32.3578C52.3784 32.4518 52.6895 32.6689 52.5954 33.0813C52.3277 34.2389 52.0528 35.4038 51.6982 36.5397C51.5463 37.0317 51.105 36.8943 50.736 36.7062C49.3787 35.9865 47.8659 35.6102 46.3297 35.6102C44.7935 35.6102 43.2807 35.9865 41.9234 36.7062C41.6702 36.8364 41.3808 37.0173 41.1203 36.8219C40.8599 36.6266 40.9684 36.2069 41.0552 35.8958C41.4893 34.2317 41.9234 32.5676 42.372 30.9107C42.5167 30.3102 42.741 29.8544 43.4645 30.0497Z" fill="#363636"/>
<path d="M46.3452 45.2403C48.5588 45.2049 50.7286 45.8599 52.553 47.1142C53.8923 48.0488 55.4569 48.6087 57.0851 48.7359C58.7133 48.8631 60.3459 48.553 61.8141 47.8377C62.2916 47.6206 62.7474 47.3602 63.2611 47.1648C63.4173 47.0978 63.5921 47.088 63.7548 47.1369C63.9175 47.1859 64.0578 47.2905 64.1511 47.4325C64.2107 47.5085 64.2546 47.5957 64.28 47.6889C64.3054 47.7821 64.3119 47.8795 64.2991 47.9752C64.2863 48.071 64.2544 48.1632 64.2054 48.2465C64.1564 48.3297 64.0911 48.4023 64.0136 48.4599C63.6923 48.7432 63.3375 48.9862 62.9573 49.1835C59.2094 51.0791 55.4543 51.0284 51.9235 48.771C48.1612 46.3617 44.5291 46.34 40.8102 48.771C39.306 49.7099 37.6046 50.287 35.8396 50.4569C35.0292 50.5509 34.3491 50.5075 34.2623 49.5307C34.1755 48.554 34.9858 48.8434 35.4778 48.8072C37.2385 48.61 38.9285 48.0029 40.4123 47.0346C42.1371 45.797 44.2235 45.166 46.3452 45.2403Z" fill="#363636"/>
<path d="M23.3725 58.2884C21.7877 58.2415 20.2206 58.632 18.8432 59.4171C18.2282 59.7354 17.4902 60.4083 16.991 59.4894C16.4917 58.5706 17.4757 58.2088 18.1124 57.8615C22.1352 55.6909 26.0278 56.1829 29.7973 58.5272C33.14 60.6037 36.5044 60.5024 39.8254 58.5272C41.3693 57.5431 43.0892 56.8674 44.8901 56.5375C45.2012 56.4868 45.6136 56.3566 45.7945 56.7184C45.9753 57.0801 45.5846 57.3695 45.3386 57.507C41.3593 59.6776 37.6331 62.5717 32.6046 61.5081C31.03 61.0983 29.5322 60.4361 28.1694 59.5473C26.7316 58.659 25.0612 58.2206 23.3725 58.2884Z" fill="#363636"/>
<path d="M55.6711 61.5878C54.5261 61.411 53.4271 61.0102 52.437 60.4085C50.9541 59.3658 49.2676 58.6483 47.4881 58.303C46.6488 58.1873 46.6922 57.7749 47.1987 57.2756C48.5806 55.8937 49.977 54.5262 51.3517 53.1443C51.945 52.551 52.3068 52.7536 52.6323 53.4192C53.7972 55.7635 54.9838 58.1004 56.1414 60.4519C56.4381 61.0886 56.6117 61.7036 55.6711 61.5878Z" fill="#363636"/>
<path d="M45.679 22.6548C40.6577 26.9959 34.7538 29.8249 28.6038 25.8744C27.7248 25.3142 26.7761 24.8715 25.7821 24.5576C25.2539 24.3985 24.9356 24.1742 25.1165 23.5375C25.1338 23.4063 25.1821 23.2812 25.2575 23.1725C25.3329 23.0638 25.4331 22.9746 25.5498 22.9124C25.6665 22.8501 25.7963 22.8166 25.9286 22.8146C26.0609 22.8126 26.1917 22.8421 26.3103 22.9008C27.3682 23.2004 28.3753 23.6564 29.2984 24.2538C32.9739 26.5907 36.635 26.6848 40.3105 24.2538C41.8876 23.1701 43.766 22.6106 45.679 22.6548Z" fill="#363636"/>
<path d="M57.5592 39.0834C56.1627 39.0946 54.7796 38.8111 53.5002 38.2513C52.8346 37.9764 52.4801 37.5278 52.8201 36.8043C53.1602 36.0808 53.7028 36.5004 54.1514 36.6596C55.5277 37.2215 57.0168 37.452 58.4985 37.3326C59.9803 37.2132 61.4132 36.7472 62.6818 35.9722C63.2172 35.6467 63.7815 35.4296 64.1288 36.088C64.4761 36.7464 63.9769 37.1516 63.4921 37.4555C61.72 38.5751 59.6546 39.1419 57.5592 39.0834Z" fill="#363636"/>
<path d="M51.106 20.3967C50.8503 20.3961 50.5978 20.3398 50.3662 20.2317C50.1345 20.1236 49.9291 19.9662 49.7645 19.7706C49.5999 19.575 49.4799 19.3458 49.4129 19.099C49.346 18.8523 49.3336 18.5939 49.3768 18.3419C49.6951 17.0974 50.1003 15.8674 50.4259 14.6302C50.737 13.5304 51.5329 13.9718 52.1696 14.1454C52.8063 14.3191 53.8554 14.2323 53.5804 15.4478C53.3055 16.6633 52.9799 18.0452 52.6616 19.3403C52.4445 20.2303 51.6631 20.252 51.106 20.3967Z" fill="#363636"/>
<path d="M57.386 27.8416C56.6625 27.6824 55.7436 27.5449 54.8754 27.2772C54.7116 27.2334 54.5584 27.1567 54.4252 27.0519C54.2919 26.9471 54.1813 26.8163 54.1001 26.6675C54.0189 26.5186 53.9688 26.3548 53.9528 26.186C53.9369 26.0172 53.9553 25.8469 54.0072 25.6855C54.2242 25.0632 54.8465 25.548 55.2589 25.6855C56.4557 26.0349 57.7116 26.135 58.9486 25.9794C60.1857 25.8239 61.3776 25.416 62.4507 24.7811C63.0006 24.47 63.6518 24.0575 64.1076 24.7449C64.643 25.5769 63.8254 25.9242 63.2828 26.2643C61.4809 27.2772 59.4529 27.8196 57.386 27.8416Z" fill="#363636"/>
<path d="M22.2659 24.9054C23.1631 24.7245 23.4308 25.1514 23.5755 25.7013C23.8577 26.7576 24.0964 27.8212 24.4148 28.8703C24.6318 29.5939 24.3207 30.0569 23.6912 30.0714C22.8447 30.0714 21.7377 31.352 21.1734 29.7892C20.8115 28.66 20.569 27.496 20.4499 26.3163C20.1677 24.5943 21.839 25.4119 22.2659 24.9054Z" fill="#363636"/>
<path d="M50.0128 11.6636C50.1864 10.079 50.6061 9.76792 52.0603 10.1442C52.849 10.3395 53.6159 10.6144 54.4118 10.7881C55.3741 10.9907 55.9818 11.2729 55.6201 12.5028C55.2583 13.7328 54.7229 13.8341 53.7317 13.4651C52.7404 13.0961 51.7999 12.937 50.8376 12.6837C50.2588 12.539 49.8174 12.3147 50.0128 11.6636Z" fill="#363636"/>
<path d="M23.9807 22.5532C24.0893 23.1538 23.7709 23.4576 23.2572 23.5806C22.0996 23.8628 20.9347 24.1305 19.7698 24.391C18.7497 24.6225 18.6122 23.9135 18.4168 23.1682C18.2215 22.423 18.3734 21.8804 19.2489 21.7212C20.1243 21.562 21.1083 21.2943 22.0417 21.0773C23.4887 20.7227 23.9228 21.07 23.9807 22.5532Z" fill="#363636"/>
<path d="M34.5873 39.0566C33.7291 39.1092 32.8694 38.9836 32.0622 38.6876C31.7471 38.5641 31.488 38.3298 31.3335 38.0287C31.1789 37.7276 31.1396 37.3805 31.2229 37.0525C31.4038 36.4447 32.0333 37.0018 32.4457 37.0525C34.4097 37.4893 36.4583 37.346 38.3424 36.6401C38.7331 36.4881 39.3264 35.9165 39.5724 36.5098C39.6919 36.8272 39.6893 37.1777 39.5649 37.4932C39.4406 37.8088 39.2034 38.0669 38.8995 38.2174C37.7369 38.7596 36.4706 39.0435 35.1878 39.0494C34.9708 39.0639 34.7826 39.0566 34.5873 39.0566Z" fill="#363636"/>
<path d="M58.8549 61.7175C58.6998 61.7464 58.5404 61.7423 58.387 61.7054C58.2337 61.6685 58.0898 61.5997 57.9648 61.5034C57.8399 61.4071 57.7366 61.2856 57.6618 61.1467C57.5871 61.0078 57.5424 60.8546 57.5309 60.6973C57.4079 59.858 58.1676 60.0172 58.6234 59.9738C60.0577 59.8694 61.4478 59.4308 62.6824 58.6932C63.2178 58.382 63.7821 58.1433 64.1801 58.78C64.578 59.4167 64.0498 59.8363 63.5651 60.1474C62.1429 61.0393 60.5278 61.5777 58.8549 61.7175Z" fill="#363636"/>
</g>
<defs>
<clipPath id="clip0_469_10791">
<rect width="80" height="80" fill="white" transform="translate(0.604492)"/>
</clipPath>
</defs>
</svg>
